<svg width="187" height="44" viewBox="0 0 187 44" fill="none" xmlns="http://www.w3.org/2000/svg">
    <g clip-path="url(#clip0_866_28898)">
        <path d="M164 0H23C10.2975 0 0 9.84974 0 22C0 34.1503 10.2975 44 23 44H164C176.703 44 187 34.1503 187 22C187 9.84974 176.703 0 164 0Z" fill="white"/>
        <path d="M44.4616 22.4858C44.4326 19.5016 47.0983 18.0497 47.2202 17.9821C45.7105 15.9424 43.3706 15.6636 42.5483 15.6414C40.583 15.4498 38.6767 16.7312 37.6755 16.7312C36.6544 16.7312 35.1128 15.6599 33.4512 15.6914C31.3131 15.722 29.3128 16.8691 28.2158 18.6507C25.9518 22.283 27.6403 27.621 29.8094 30.5571C30.8945 31.9959 32.1623 33.6006 33.8219 33.5441C35.4455 33.483 36.052 32.5857 38.0112 32.5857C39.9526 32.5857 40.5221 33.5441 42.2146 33.508C43.9571 33.483 45.0541 32.0636 46.1012 30.6126C47.3551 28.9654 47.8586 27.3413 47.8786 27.258C47.8387 27.245 44.4956 26.0617 44.4616 22.4858ZM41.2644 13.7099C42.1376 12.6979 42.7351 11.321 42.5693 9.92383C41.3054 9.97567 39.7247 10.734 38.8145 11.7238C38.0092 12.5961 37.2899 14.0257 37.4757 15.3701C38.8955 15.4682 40.3532 14.7062 41.2644 13.7099Z" fill="#004023"/>
        <g opacity="0.5">
            <path d="M70.5879 17.0097H69.0333L68.2649 14.9047H64.9054L64.1668 17.0097H62.6182L65.8168 8.73975H67.4131L70.5879 17.0097ZM67.8896 13.7859L66.7043 10.4871C66.6686 10.3795 66.6308 10.2065 66.5911 9.96814H66.5673C66.5316 10.1873 66.4918 10.3603 66.4482 10.4871L65.2747 13.7859H67.8896Z" fill="#004023"/>
            <path d="M76.6043 11.1042L74.2456 17.0097H72.7505L70.5049 11.1042H72.0059L73.3581 15.2335C73.4613 15.5372 73.5248 15.8025 73.5487 16.0293H73.5665C73.6023 15.7448 73.6579 15.4872 73.7333 15.2565L75.1509 11.1042H76.6043Z" fill="#004023"/>
            <path d="M82.0241 17.0097H80.6839V16.0869H80.6601C80.2391 16.7944 79.6217 17.1481 78.8076 17.1481C78.208 17.1481 77.7375 16.9905 77.396 16.6752C77.0585 16.3599 76.8896 15.9428 76.8896 15.4238C76.8896 14.3088 77.5529 13.659 78.8792 13.4745L80.6899 13.2266C80.6899 12.3845 80.277 11.9636 79.451 11.9636C78.7243 11.9636 78.069 12.2058 77.4853 12.6901V11.5195C78.1286 11.1504 78.8712 10.9658 79.7131 10.9658C81.2538 10.9658 82.0241 11.7001 82.0241 13.1689V17.0097ZM80.6899 14.1089L79.4092 14.2819C79.0121 14.3318 78.7123 14.426 78.5098 14.5644C78.3112 14.699 78.212 14.9374 78.212 15.2795C78.212 15.5295 78.3033 15.7351 78.486 15.8967C78.6726 16.0542 78.9208 16.133 79.2305 16.133C79.6514 16.133 79.9989 15.9908 80.2729 15.7063C80.5509 15.418 80.6899 15.0566 80.6899 14.6221V14.1089Z" fill="#004023"/>
            <path d="M84.4128 9.86433C84.1865 9.86433 83.9919 9.79317 83.8291 9.65093C83.6703 9.50866 83.5908 9.32795 83.5908 9.1088C83.5908 8.88966 83.6703 8.70704 83.8291 8.56095C83.9919 8.41485 84.1865 8.3418 84.4128 8.3418C84.6471 8.3418 84.8457 8.41485 85.0085 8.56095C85.1713 8.70704 85.2527 8.88966 85.2527 9.1088C85.2527 9.31642 85.1713 9.4952 85.0085 9.6451C84.8457 9.79125 84.6471 9.86433 84.4128 9.86433ZM85.0978 17.0096H83.7159V11.1042H85.0978V17.0096Z" fill="#004023"/>
            <path d="M88.296 17.0097H86.9082V8.26685H88.296V17.0097Z" fill="#004023"/>
            <path d="M94.7828 17.0097H93.4426V16.0869H93.4188C92.9979 16.7944 92.3804 17.1481 91.5663 17.1481C90.9667 17.1481 90.4962 16.9905 90.1547 16.6752C89.8171 16.3599 89.6484 15.9428 89.6484 15.4238C89.6484 14.3088 90.3115 13.659 91.6378 13.4745L93.4486 13.2266C93.4486 12.3845 93.0356 11.9636 92.2096 11.9636C91.483 11.9636 90.8277 12.2058 90.244 12.6901V11.5195C90.8873 11.1504 91.6299 10.9658 92.4717 10.9658C94.0125 10.9658 94.7828 11.7001 94.7828 13.1689V17.0097ZM93.4486 14.1089L92.1679 14.2819C91.7708 14.3318 91.471 14.426 91.2685 14.5644C91.07 14.699 90.9707 14.9374 90.9707 15.2795C90.9707 15.5295 91.062 15.7351 91.2447 15.8967C91.4313 16.0542 91.6795 16.133 91.9893 16.133C92.4102 16.133 92.7576 15.9908 93.0316 15.7063C93.3096 15.418 93.4486 15.0566 93.4486 14.6221V14.1089Z" fill="#004023"/>
            <path d="M97.8803 16.1562H97.8565V17.0097H96.4746V8.26685H97.8565V12.1423H97.8803C98.3528 11.358 99.0438 10.9658 99.9531 10.9658C100.724 10.9658 101.325 11.2311 101.758 11.7616C102.195 12.2884 102.413 12.9958 102.413 13.8839C102.413 14.872 102.169 15.664 101.681 16.2599C101.192 16.852 100.525 17.1481 99.6791 17.1481C98.8849 17.1481 98.2853 16.8174 97.8803 16.1562ZM97.8445 13.809V14.5414C97.8445 14.972 97.9855 15.3372 98.2675 15.6371C98.5534 15.937 98.9147 16.0869 99.3515 16.0869C99.8638 16.0869 100.265 15.8946 100.555 15.5102C100.849 15.1219 100.996 14.5817 100.996 13.8897C100.996 13.3092 100.859 12.8555 100.585 12.5286C100.315 12.1981 99.9472 12.0327 99.4826 12.0327C98.9902 12.0327 98.5931 12.2019 98.2913 12.5402C97.9935 12.8785 97.8445 13.3014 97.8445 13.809Z" fill="#004023"/>
            <path d="M105.213 17.0097H103.825V8.26685H105.213V17.0097Z" fill="#004023"/>
            <path d="M112.182 14.4203H108.024C108.04 14.9662 108.213 15.3872 108.542 15.6833C108.876 15.9793 109.333 16.1273 109.912 16.1273C110.564 16.1273 111.161 15.939 111.705 15.5622V16.6406C111.149 16.9789 110.415 17.1481 109.501 17.1481C108.604 17.1481 107.899 16.8809 107.387 16.3464C106.879 15.8082 106.624 15.0528 106.624 14.0801C106.624 13.1611 106.904 12.4133 107.464 11.8366C108.028 11.2561 108.727 10.9658 109.561 10.9658C110.395 10.9658 111.04 11.2253 111.497 11.7444C111.954 12.2634 112.182 12.9843 112.182 13.907V14.4203ZM110.848 13.4745C110.844 12.9939 110.726 12.621 110.496 12.3556C110.266 12.0866 109.948 11.952 109.543 11.952C109.146 11.952 108.808 12.0923 108.531 12.373C108.257 12.6537 108.088 13.0208 108.024 13.4745H110.848Z" fill="#004023"/>
            <path d="M119.562 17.1481C118.621 17.1481 117.868 16.8732 117.304 16.3234C116.744 15.7698 116.465 15.0374 116.465 14.1262C116.465 13.1343 116.756 12.3596 117.34 11.8021C117.928 11.2446 118.718 10.9658 119.711 10.9658C120.664 10.9658 121.406 11.2369 121.939 11.779C122.471 12.3211 122.737 13.0728 122.737 14.0339C122.737 14.9758 122.449 15.7313 121.873 16.3003C121.301 16.8655 120.531 17.1481 119.562 17.1481ZM119.627 12.0327C119.087 12.0327 118.66 12.2153 118.347 12.5806C118.033 12.9458 117.876 13.4495 117.876 14.0915C117.876 14.7106 118.035 15.1988 118.353 15.5564C118.67 15.9101 119.095 16.0869 119.627 16.0869C120.171 16.0869 120.588 15.912 120.878 15.5622C121.172 15.2123 121.319 14.7144 121.319 14.0685C121.319 13.4187 121.172 12.917 120.878 12.5633C120.588 12.2096 120.171 12.0327 119.627 12.0327Z" fill="#004023"/>
            <path d="M129.581 17.0097H128.199V13.6822C128.199 12.5787 127.796 12.027 126.99 12.027C126.569 12.027 126.221 12.1808 125.947 12.4883C125.673 12.7921 125.536 13.1765 125.536 13.6418V17.0097H124.148V11.1042H125.536V12.0847H125.56C126.017 11.3388 126.676 10.9658 127.538 10.9658C128.201 10.9658 128.707 11.1754 129.056 11.5944C129.406 12.0097 129.581 12.6113 129.581 13.3995V17.0097Z" fill="#004023"/>
            <path d="M137.848 16.9464C137.578 17.077 137.223 17.1424 136.782 17.1424C135.599 17.1424 135.007 16.5926 135.007 15.493V12.1539H133.988V11.1043H135.007V9.73754L136.389 9.35693V11.1043H137.848V12.1539H136.389V15.1067C136.389 15.4565 136.454 15.7064 136.585 15.8563C136.716 16.0063 136.935 16.0813 137.241 16.0813C137.475 16.0813 137.677 16.016 137.848 15.8852V16.9464Z" fill="#004023"/>
            <path d="M144.46 17.0097H143.078V13.7802C143.078 12.6113 142.675 12.027 141.869 12.027C141.464 12.027 141.122 12.1961 140.844 12.5345C140.566 12.8728 140.427 13.3053 140.427 13.832V17.0097H139.039V8.26685H140.427V12.0846H140.451C140.912 11.3387 141.571 10.9658 142.429 10.9658C143.783 10.9658 144.46 11.7674 144.46 13.3707V17.0097Z" fill="#004023"/>
            <path d="M151.304 14.4203H147.146C147.162 14.9662 147.335 15.3872 147.664 15.6833C147.998 15.9793 148.455 16.1273 149.034 16.1273C149.686 16.1273 150.283 15.939 150.827 15.5622V16.6406C150.271 16.9789 149.537 17.1481 148.623 17.1481C147.726 17.1481 147.021 16.8809 146.509 16.3464C146.001 15.8082 145.746 15.0528 145.746 14.0801C145.746 13.1611 146.026 12.4133 146.586 11.8366C147.15 11.2561 147.849 10.9658 148.683 10.9658C149.517 10.9658 150.162 11.2253 150.619 11.7444C151.076 12.2634 151.304 12.9843 151.304 13.907V14.4203ZM149.97 13.4745C149.966 12.9939 149.848 12.621 149.618 12.3556C149.388 12.0866 149.07 11.952 148.665 11.952C148.268 11.952 147.931 12.0923 147.653 12.373C147.379 12.6537 147.21 13.0208 147.146 13.4745H149.97Z" fill="#004023"/>
        </g>
        <path d="M73.8158 33.5437H71.6393L70.5636 30.5967H65.8604L64.8264 33.5437H62.6582L67.1363 21.9658H69.3711L73.8158 33.5437ZM70.0383 29.0304L68.3788 24.4122C68.3287 24.2615 68.2759 24.0193 68.2203 23.6856H68.187C68.137 23.9923 68.0814 24.2346 68.0202 24.4122L66.3774 29.0304H70.0383Z" fill="#004023"/>
        <path d="M77.2181 32.3245H77.1847V37.3464H75.25V25.276H77.1847V26.7293H77.2181C77.8796 25.6312 78.847 25.0823 80.12 25.0823C81.2041 25.0823 82.0491 25.4509 82.6551 26.1883C83.2611 26.9258 83.5641 27.9162 83.5641 29.1595C83.5641 30.5374 83.2222 31.6409 82.5384 32.4698C81.8546 33.2987 80.9206 33.7132 79.7365 33.7132C78.6468 33.7132 77.8074 33.2503 77.2181 32.3245ZM77.168 29.0626V30.088C77.168 30.6908 77.3654 31.2022 77.7601 31.622C78.1604 32.0418 78.6663 32.2518 79.2778 32.2518C79.995 32.2518 80.5565 31.9826 80.9623 31.4444C81.3737 30.9008 81.5794 30.1445 81.5794 29.1757C81.5794 28.3629 81.3876 27.7277 81.004 27.2702C80.6259 26.8074 80.1117 26.5759 79.4613 26.5759C78.7719 26.5759 78.216 26.8127 77.7935 27.2864C77.3765 27.7601 77.168 28.3521 77.168 29.0626Z" fill="#004023"/>
        <path d="M87.508 32.3247H87.4747V37.3467H85.54V25.2762H87.4747V26.7296H87.508C88.1696 25.6315 89.1369 25.0825 90.41 25.0825C91.4941 25.0825 92.3391 25.4512 92.9451 26.1885C93.5511 26.926 93.854 27.9164 93.854 29.1598C93.854 30.5377 93.5121 31.6411 92.8283 32.47C92.1445 33.2989 91.2106 33.7134 90.0264 33.7134C88.9368 33.7134 88.0973 33.2505 87.508 32.3247ZM87.458 29.0629V30.0883C87.458 30.6911 87.6554 31.2024 88.0501 31.6223C88.4503 32.0421 88.9562 32.252 89.5678 32.252C90.2849 32.252 90.8464 31.9829 91.2523 31.4446C91.6637 30.901 91.8694 30.1447 91.8694 29.176C91.8694 28.3631 91.6776 27.728 91.294 27.2705C90.9159 26.8076 90.4017 26.5761 89.7512 26.5761C89.0619 26.5761 88.5059 26.813 88.0834 27.2866C87.6665 27.7603 87.458 28.3524 87.458 29.0629Z" fill="#004023"/>
        <path d="M100.201 33.0834V31.1053C100.384 31.2668 100.601 31.4122 100.851 31.5413C101.107 31.6705 101.376 31.7808 101.66 31.8724C101.943 31.9585 102.227 32.0258 102.51 32.0742C102.794 32.1226 103.055 32.1469 103.294 32.1469C104.128 32.1469 104.748 32.0123 105.154 31.7431C105.565 31.4741 105.771 31.0838 105.771 30.5725C105.771 30.2979 105.702 30.0611 105.563 29.8619C105.429 29.6574 105.24 29.4717 104.995 29.3049C104.751 29.1381 104.462 28.9793 104.128 28.8285C103.8 28.6724 103.447 28.511 103.069 28.344C102.663 28.1342 102.285 27.9215 101.935 27.7062C101.585 27.4909 101.279 27.2541 101.018 26.9957C100.762 26.732 100.559 26.436 100.409 26.1076C100.264 25.7793 100.192 25.3944 100.192 24.9531C100.192 24.4095 100.317 23.9385 100.567 23.5402C100.823 23.1365 101.157 22.8054 101.568 22.547C101.985 22.2833 102.458 22.0895 102.986 21.9658C103.514 21.8365 104.053 21.772 104.604 21.772C105.854 21.772 106.766 21.9092 107.339 22.1838V24.0811C106.661 23.6074 105.788 23.3706 104.72 23.3706C104.426 23.3706 104.131 23.3975 103.836 23.4513C103.547 23.5052 103.286 23.594 103.053 23.7178C102.825 23.8416 102.638 24.0004 102.494 24.1942C102.349 24.3879 102.277 24.622 102.277 24.8965C102.277 25.1549 102.333 25.3783 102.444 25.5667C102.555 25.7551 102.716 25.9273 102.927 26.0834C103.144 26.2395 103.406 26.3929 103.711 26.5436C104.023 26.689 104.381 26.8478 104.787 27.02C105.204 27.2299 105.596 27.4506 105.963 27.682C106.335 27.9135 106.661 28.1692 106.938 28.4491C107.222 28.7289 107.444 29.0412 107.606 29.3856C107.772 29.7247 107.856 30.1123 107.856 30.5483C107.856 31.135 107.733 31.6302 107.489 32.0338C107.244 32.4375 106.913 32.7659 106.497 33.0188C106.085 33.2718 105.61 33.4548 105.071 33.5679C104.531 33.6809 103.961 33.7374 103.361 33.7374C103.161 33.7374 102.914 33.7212 102.619 33.689C102.33 33.662 102.032 33.619 101.727 33.5598C101.421 33.5059 101.132 33.4387 100.859 33.3579C100.587 33.2772 100.367 33.1857 100.201 33.0834Z" fill="#004023"/>
        <path d="M113.843 33.455C113.465 33.638 112.968 33.7295 112.351 33.7295C110.694 33.7295 109.865 32.9598 109.865 31.4204V26.7456H108.44V25.2761H109.865V23.3627L111.8 22.8298V25.2761H113.843V26.7456H111.8V30.8794C111.8 31.3692 111.892 31.7191 112.075 31.929C112.259 32.1389 112.565 32.2439 112.993 32.2439C113.321 32.2439 113.604 32.1524 113.843 31.9694V33.455Z" fill="#004023"/>
        <path d="M119.197 33.7376C117.879 33.7376 116.826 33.3528 116.036 32.5831C115.253 31.808 114.861 30.7826 114.861 29.5069C114.861 28.1182 115.269 27.0336 116.086 26.2532C116.909 25.4727 118.016 25.0825 119.405 25.0825C120.74 25.0825 121.779 25.462 122.524 26.2209C123.269 26.9798 123.642 28.0321 123.642 29.3778C123.642 30.6964 123.239 31.7542 122.432 32.5508C121.632 33.342 120.553 33.7376 119.197 33.7376ZM119.289 26.5761C118.533 26.5761 117.935 26.8318 117.496 27.3432C117.057 27.8545 116.837 28.5596 116.837 29.4585C116.837 30.3251 117.059 31.0086 117.504 31.5092C117.949 32.0045 118.544 32.252 119.289 32.252C120.05 32.252 120.634 32.0072 121.04 31.5173C121.451 31.0275 121.657 30.3305 121.657 29.4262C121.657 28.5165 121.451 27.8142 121.04 27.319C120.634 26.8238 120.05 26.5761 119.289 26.5761Z" fill="#004023"/>
        <path d="M130.571 27.0605C130.338 26.8829 130.001 26.7941 129.562 26.7941C128.99 26.7941 128.512 27.0444 128.128 27.5449C127.744 28.0455 127.553 28.7264 127.553 29.5876V33.5438H125.618V25.2762H127.553V26.9797H127.586C127.775 26.3984 128.064 25.9463 128.453 25.6234C128.848 25.295 129.287 25.1309 129.771 25.1309C130.121 25.1309 130.388 25.182 130.571 25.2843V27.0605Z" fill="#004023"/>
        <path d="M139.019 29.9187H133.198C133.22 30.683 133.462 31.2724 133.924 31.6868C134.391 32.1013 135.03 32.3086 135.842 32.3086C136.753 32.3086 137.59 32.0448 138.352 31.5173V33.0271C137.573 33.5008 136.545 33.7376 135.266 33.7376C134.01 33.7376 133.023 33.3635 132.306 32.6153C131.594 31.8618 131.238 30.8041 131.238 29.4423C131.238 28.1559 131.63 27.109 132.414 26.3016C133.204 25.4888 134.182 25.0825 135.35 25.0825C136.517 25.0825 137.42 25.4458 138.06 26.1725C138.699 26.899 139.019 27.9083 139.019 29.2002V29.9187ZM137.151 28.5946C137.145 27.9218 136.981 27.3997 136.659 27.0283C136.336 26.6515 135.892 26.4631 135.325 26.4631C134.769 26.4631 134.296 26.6595 133.907 27.0525C133.523 27.4454 133.287 27.9594 133.198 28.5946H137.151Z" fill="#004023"/>
    </g>
    <defs>
        <clipPath id="clip0_866_28898">
            <rect width="187" height="44" fill="white"/>
        </clipPath>
    </defs>
</svg>
