<svg width="169" height="151" viewBox="0 0 169 151" fill="none" xmlns="http://www.w3.org/2000/svg">
    <g clip-path="url(#clip0_849_28861)">
        <path d="M103.585 25.8921H103.392C102.207 25.8921 95.329 25.3703 94.4248 15.744C94.3055 13.5319 93.3666 11.4517 91.8024 9.93331C90.2381 8.41497 88.168 7.57465 86.02 7.58605C83.872 7.59746 81.8104 8.45972 80.2614 9.99459C78.7124 11.5295 77.7943 13.6196 77.6971 15.8329C76.7929 25.1593 69.8929 25.8255 68.3536 25.8921H68.063V58.6014C70.7225 59.7084 73.3048 61.0031 75.7918 62.4763C84.2848 59.8782 92.132 57.7354 102.046 57.7354C102.552 57.7354 103.058 57.7354 103.553 57.7354V25.9366L103.585 25.8921Z" fill="#FBF4B7"/>
        <path d="M102.961 31.8321V38.3607C114.702 42.4563 124.664 50.6974 131.088 61.6302C137.513 72.5629 139.988 85.4848 138.077 98.1163C136.165 110.748 129.99 122.277 120.641 130.67C111.292 139.064 99.3694 143.782 86.9766 143.992C74.5837 144.202 62.5171 139.892 52.9053 131.82C43.2935 123.748 36.7541 112.435 34.4409 99.8751C32.1277 87.3153 34.1892 74.3164 40.2618 63.1716C46.3344 52.0267 56.0278 43.452 67.6321 38.9602V31.7766C54.109 36.0146 42.5194 45.137 34.987 57.4722C27.4547 69.8074 24.484 84.5292 26.6194 98.9399C28.7549 113.351 35.8534 126.485 46.6142 135.936C57.3749 145.387 71.0773 150.523 85.2102 150.4C117.945 150.4 144.489 123.243 144.489 89.734C144.458 76.7763 140.412 64.1683 132.94 53.7513C125.469 43.3343 114.964 35.654 102.961 31.8321Z" fill="#FBF4B7"/>
        <path d="M103.391 57.169C113.645 57.3613 123.724 59.9422 132.875 64.719C126.641 52.4524 116.091 43.1123 103.391 38.616V57.169Z" fill="#56B99C"/>
        <path d="M68.4073 39.0046C60.7199 41.9196 53.8005 46.6497 48.2026 52.8167C55.294 53.7277 62.1515 56.0265 68.4073 59.5895V39.0046Z" fill="#56B99C"/>
        <path d="M86.0394 105.911C70.842 105.891 56.1374 111.471 44.5752 121.644C49.5943 128.175 55.9578 133.475 63.2057 137.159C70.4536 140.843 78.4046 142.82 86.4839 142.946C94.5631 143.073 102.569 141.346 109.922 137.89C117.274 134.434 123.791 129.337 129 122.965C117.235 111.967 101.918 105.887 86.0394 105.911Z" fill="#F2ACB0"/>
        <path d="M25.8668 146.526C31.9134 130.797 43.5359 118.031 58.3751 110.819L67.1265 147.636C67.2901 148.328 67.6738 148.943 68.2162 149.384C68.7586 149.825 69.4285 150.065 70.119 150.067H100.905C101.59 150.068 102.255 149.834 102.797 149.402C103.339 148.969 103.726 148.364 103.897 147.68L113.176 110.907C128.347 118.355 140.099 131.617 145.932 147.869C146.165 148.505 146.58 149.051 147.123 149.436C147.665 149.821 148.309 150.026 148.968 150.023H166.191C166.867 150.013 167.532 149.841 168.133 149.521C168.735 149.201 169.256 148.742 169.656 148.179C170.057 147.617 170.325 146.966 170.441 146.278C170.557 145.591 170.517 144.885 170.324 144.216C164.729 125.651 153.535 109.412 138.373 97.8627C123.21 86.3135 104.87 80.057 86.021 80.0038C67.1723 79.9505 48.799 86.1033 33.5752 97.5665C18.3514 109.03 7.07181 125.205 1.37799 143.739C1.15079 144.459 1.09171 145.224 1.20556 145.972C1.31941 146.72 1.60298 147.43 2.03316 148.044C2.46335 148.657 3.02798 149.157 3.68106 149.503C4.33415 149.849 5.05721 150.031 5.79136 150.034H20.8614C21.9406 150.034 22.9949 149.7 23.8875 149.074C24.7801 148.449 25.4697 147.561 25.8668 146.526ZM90.7542 104.923L85.695 127.562L80.5281 104.934L90.7542 104.923Z" fill="#FBF4B7"/>
        <path d="M27.8477 102.358C24.9307 88.2827 26.9275 73.597 33.4859 60.8924C40.0443 48.1878 50.7426 38.281 63.6929 32.9202L60.1837 20.5071C59.9243 19.5807 59.3796 18.7666 58.632 18.1877C57.8843 17.6088 56.9743 17.2966 56.0395 17.2983H35.0813C34.1164 17.2972 33.1791 17.6305 32.4198 18.2445C31.6605 18.8586 31.1231 19.718 30.894 20.6847L1.7334 141.352H2.20703C7.30637 126.267 16.1465 112.824 27.8477 102.358Z" fill="#FBF4B7"/>
        <path d="M143.413 102.025C146.33 87.9497 144.333 73.264 137.775 60.5594C131.217 47.8548 120.518 37.948 107.568 32.5872L111.077 20.1741C111.336 19.2477 111.881 18.4336 112.629 17.8547C113.376 17.2758 114.286 16.9637 115.221 16.9654H136.179C137.137 16.9612 138.069 17.2864 138.827 17.8897C139.586 18.493 140.127 19.3398 140.367 20.2963L169.484 140.996H169.011C163.92 125.925 155.095 112.49 143.413 102.025Z" fill="#FBF4B7"/>
        <path d="M44.5642 89.8782C51.7449 78.2257 62.0664 68.9879 74.263 63.2978C66.4832 57.6169 57.4729 53.9878 48.0196 52.7278C42.6155 58.6674 38.5661 65.7772 36.1674 73.5379C33.7687 81.2985 33.0812 89.5138 34.1551 97.5837C37.2875 95.1521 40.7644 93.2424 44.0367 90.9219C44.2305 90.8553 44.3166 90.4112 44.5642 89.8782Z" fill="#748F5E"/>
        <path d="M138.817 89.4453C138.832 80.9568 136.895 72.5856 133.166 65.0188C117.942 56.9417 100.329 55.0705 83.8282 59.7775C67.3278 64.4844 53.1494 75.4246 44.1125 90.4224C56.5561 83.5496 70.582 80.574 85.6844 80.574C104.483 80.4858 122.84 86.443 138.204 97.6171C138.603 94.9124 138.808 92.1811 138.817 89.4453Z" fill="#748F5E"/>
        <path d="M169.7 136.178C168.849 132.847 154.307 72.8908 145.491 37.4613L141.185 19.0971C141.185 18.9749 141.11 18.8528 141.077 18.764L140.927 18.4309C140.697 17.9954 140.358 17.6316 139.945 17.3776C139.532 17.1237 139.061 16.9889 138.58 16.9875H112.746C112.144 16.9833 111.559 17.1897 111.086 17.5728C110.613 17.956 110.28 18.4933 110.141 19.0971L107.148 31.9099C106.352 31.6101 105.469 31.2992 104.414 30.9439V27.1689H106.567C106.884 27.1689 107.188 27.039 107.412 26.8079C107.636 26.5768 107.762 26.2633 107.762 25.9365C107.762 25.6096 107.636 25.2961 107.412 25.065C107.188 24.8339 106.884 24.704 106.567 24.704H104.414V22.3391C104.414 22.0122 104.288 21.6988 104.064 21.4677C103.84 21.2365 103.536 21.1067 103.219 21.1067C102.902 21.1067 102.598 21.2365 102.374 21.4677C102.15 21.6988 102.024 22.0122 102.024 22.3391V24.482C100.348 24.0706 98.8538 23.0889 97.7837 21.6951C96.7136 20.3013 96.1296 18.5766 96.1256 16.7988V16.5989C96.108 14.0359 95.1766 11.5692 93.509 9.66902C91.8415 7.76882 89.5543 6.56797 87.0835 6.29536V5.18507L94.3172 3.33088L87.0835 1.53221V1.23243C87.0835 0.905567 86.9577 0.592086 86.7336 0.360961C86.5095 0.129836 86.2056 0 85.8887 0C85.5718 0 85.2679 0.129836 85.0438 0.360961C84.8198 0.592086 84.6939 0.905567 84.6939 1.23243V6.30646C82.2469 6.59877 79.9903 7.81143 78.3558 9.7124C76.7213 11.6134 75.8238 14.0692 75.8348 16.61V16.8099C75.8375 18.6404 75.219 20.4143 74.0865 21.8237C72.954 23.2332 71.379 24.1893 69.6346 24.5264V22.1393C69.6063 21.8312 69.4676 21.545 69.2456 21.3368C69.0237 21.1285 68.7344 21.0131 68.4343 21.0131C68.1343 21.0131 67.845 21.1285 67.6231 21.3368C67.4011 21.545 67.2624 21.8312 67.2341 22.1393V24.704H65.0813C64.7825 24.7333 64.5051 24.8763 64.3032 25.1052C64.1013 25.3342 63.9894 25.6325 63.9894 25.942C63.9894 26.2515 64.1013 26.5499 64.3032 26.7788C64.5051 27.0077 64.7825 27.1508 65.0813 27.18H67.2341V31.1771C66.5883 31.3991 65.9424 31.6434 65.2965 31.8876L64.9844 31.9987L64.2416 32.2651L63.5742 29.4339L61.1523 19.086C61.012 18.4821 60.6788 17.9445 60.2062 17.5598C59.7337 17.1751 59.1493 16.9657 58.5473 16.9653H32.7129C32.2304 16.9642 31.7568 17.0991 31.3432 17.3555C30.9297 17.6118 30.5918 17.9798 30.3663 18.4198L30.2156 18.7529C30.1684 18.8597 30.1324 18.9713 30.108 19.086L25.5223 38.7382C25.5223 38.8492 25.5223 38.9602 25.4362 39.0712L6.54483 117.713C4.32738 126.252 2.75578 132.147 2.09916 134.479L1.81928 135.411C1.43699 136.555 1.14187 137.729 0.93661 138.92C0.274311 141.342 -0.0198191 143.855 0.0647014 146.37C0.0647014 149.346 1.95922 150.811 3.10024 150.811L23.9292 150.767C24.473 150.731 24.9951 150.534 25.4326 150.199C25.87 149.864 26.204 149.406 26.3942 148.879C27.1585 146.825 27.9335 144.838 28.9023 142.817C31.4676 137.902 34.633 133.346 38.3211 129.26C45.7179 137.775 55.2732 143.989 65.9101 147.203L66.1039 147.281H66.2115L66.5344 148.646C66.6704 149.238 66.9964 149.766 67.4595 150.142C67.9226 150.519 68.4957 150.724 69.0856 150.722H102.39C102.974 150.722 103.54 150.523 104.002 150.155C104.464 149.788 104.794 149.273 104.942 148.691L105.06 148.357C116.182 145.113 126.144 138.592 133.725 129.594C138.496 135.28 142.269 141.78 144.877 148.802C145.069 149.328 145.403 149.787 145.84 150.123C146.277 150.46 146.798 150.66 147.342 150.7L168.236 150.767C169.377 150.767 171.228 149.301 171.271 146.326C171.401 144.483 171.153 141.918 169.7 136.178ZM166.223 131.792H165.997L165.771 131.27C165.685 131.081 165.599 130.881 165.502 130.693H165.954L166.223 131.792ZM165.674 129.427H164.856L164.371 128.494L164.285 128.328L165.362 128.272L165.674 129.427ZM165.114 127.084L163.607 126.995L163.37 126.54C163.22 126.274 163.08 126.007 162.94 125.741L164.78 125.663L165.114 127.084ZM164.511 124.508L162.165 124.408L161.368 123.076L164.135 122.954L164.511 124.508ZM163.887 121.888L160.572 121.755C160.303 121.333 160.033 120.911 159.754 120.5L159.7 120.411L163.5 120.256L163.887 121.888ZM163.263 119.268L158.806 119.079C158.688 118.912 158.58 118.735 158.462 118.557C158.343 118.38 158.128 118.046 157.945 117.791L162.864 117.591L163.263 119.268ZM162.66 116.703L156.987 116.459C156.664 116.015 156.32 115.57 155.986 115.137L162.229 114.871L162.66 116.703ZM162.046 114.083L154.963 113.783L153.887 112.462L161.583 112.14L162.046 114.083ZM161.433 111.496L152.767 111.129L152.315 110.574C152.089 110.319 151.874 110.052 151.659 109.797L160.938 109.408L161.433 111.496ZM111.454 20.3073C111.546 19.8844 111.755 19.4985 112.057 19.197C111.971 20.3073 111.971 20.9846 111.971 22.5834C111.946 24.1956 112.193 25.7999 112.703 27.3243C112.703 27.3243 112.789 23.9935 112.929 22.7055C113.116 21.2936 113.375 19.8928 113.704 18.5086H114.35C114.179 19.8559 114.096 21.2135 114.102 22.5723C114.193 24.1664 114.42 25.7491 114.78 27.3021C114.78 27.3021 115.06 23.838 115.135 22.9387C115.211 22.0393 115.631 20.0075 115.943 18.4975H116.599C116.459 19.8881 116.387 21.2852 116.384 22.6833C116.413 24.2287 116.641 25.7632 117.062 27.2466C117.062 27.2466 117.267 23.6048 117.374 22.8054C117.482 22.006 117.88 20.0075 118.203 18.4975H118.86C118.707 19.8464 118.628 21.2031 118.623 22.5612C118.711 24.1797 118.949 25.7859 119.333 27.3576L119.667 22.6722C119.882 21.3843 120.141 20.0075 120.464 18.4975H121.12C121.002 20.0408 120.873 21.6507 120.873 22.5612C120.898 24.1548 121.071 25.7424 121.389 27.3021L121.928 22.6722C121.928 22.6722 122.401 20.0075 122.724 18.4975H123.381C123.252 20.0408 123.101 21.7618 123.123 22.761C123.231 24.2895 123.451 25.8075 123.779 27.3021C123.779 27.3021 124.102 23.7936 124.188 22.6722C124.376 21.2668 124.638 19.8732 124.974 18.4975H125.631C125.512 20.0408 125.405 20.8735 125.394 22.5612C125.409 24.1909 125.667 25.8085 126.158 27.3576C126.158 27.3576 126.373 23.4605 126.449 22.6722C126.524 21.8839 126.912 20.0075 127.235 18.4975H127.891C127.746 19.8471 127.667 21.2034 127.654 22.5612C127.752 24.1313 128.052 25.681 128.548 27.1689C128.548 27.1689 128.548 24.0601 128.698 22.7277C128.806 21.6174 129.172 20.063 129.495 18.553H130.152C129.988 19.9303 129.934 21.3191 129.99 22.7055C130.163 24.2854 130.488 25.8438 130.959 27.3576C130.959 27.3576 130.851 23.8602 130.959 22.7832C131.067 21.7063 131.443 20.063 131.756 18.553H132.412C132.307 19.9314 132.307 21.3161 132.412 22.6944C132.672 24.2831 133.072 25.844 133.607 27.3576C133.607 27.3576 133.381 24.0934 133.381 22.6389C133.438 21.2576 133.643 19.8872 133.995 18.553H134.651C134.484 19.9467 134.484 21.3563 134.651 22.7499C134.921 24.3098 135.35 25.8357 135.932 27.3021C135.932 27.3909 135.663 24.3709 135.598 22.8609C135.549 21.4049 135.761 19.952 136.223 18.5752H137.009C136.835 19.948 136.791 21.3351 136.879 22.7166C137.11 24.2553 137.556 25.7512 138.203 27.1578C138.203 27.1578 137.848 24.2266 137.848 22.8832C137.798 21.4855 138.037 20.0928 138.548 18.7973H138.655C138.815 20.9407 139.245 23.0535 139.936 25.0815C141.11 28.5012 144.178 39.5709 145.448 44.1564L160.765 108.864L150.378 108.431L149.108 107.077L158.86 106.688L147.87 105.778L146.643 104.623L146.503 104.49L157.45 104.068L146.094 103.135C146.187 102.661 146.284 102.173 146.384 101.67L155.706 101.37L146.589 100.559C146.707 99.8265 146.815 99.0826 146.912 98.3387L153.187 98.1722L147.019 97.5504C147.347 95.1444 147.519 92.7186 147.536 90.2891C147.487 78.6549 144.252 67.2717 138.206 57.4503C132.16 47.6288 123.547 39.7685 113.359 34.7744C111.594 33.8307 110.076 33.109 108.601 32.4872L111.454 20.3073ZM104.446 32.5205C116.044 36.4615 126.139 44.0794 133.291 54.2876C140.443 64.4958 144.287 76.7728 144.274 89.3676C144.266 93.3537 143.876 97.3292 143.112 101.237L142.509 100.737L142.186 100.459C142.223 100.393 142.252 100.322 142.272 100.248L142.337 99.8043C142.38 99.5527 142.326 99.2936 142.186 99.0826C142.045 98.8784 141.833 98.7387 141.594 98.6932C141.355 98.6476 141.108 98.6996 140.905 98.8384C140.778 98.9293 140.674 99.0513 140.604 99.1937C140.195 98.8606 139.775 98.5386 139.355 98.2166C141.286 85.7356 138.995 72.9494 132.865 62.0053C126.736 51.0612 117.142 42.626 105.695 38.1164H107.557C107.853 38.0873 108.128 37.9455 108.328 37.7186C108.528 37.4918 108.639 37.1962 108.639 36.8895C108.639 36.5829 108.528 36.2873 108.328 36.0604C108.128 35.8335 107.853 35.6917 107.557 35.6626H104.446V32.5205ZM96.5346 77.1099C95.3444 76.7614 94.1324 76.4981 92.9071 76.3216C93.2515 75.933 94.1019 74.8782 94.4464 74.5118H94.5863C94.7649 74.4446 94.9485 74.3926 95.1353 74.3564C96.3297 74.2041 97.541 74.2794 98.709 74.5784L101.798 75.5555C100.922 75.0136 100.008 74.5386 99.0643 74.1343C97.956 73.7551 96.8229 73.4583 95.6735 73.2461C96.1686 72.7354 96.8791 71.9359 97.2989 71.5362L97.4496 71.4807L97.7295 71.403C98.9673 71.3048 100.212 71.425 101.411 71.7583L104.522 72.6576C104.522 72.6576 102.713 71.6695 101.712 71.2809C100.681 70.9028 99.6274 70.5913 98.5583 70.3482L99.2042 69.7931C99.4302 69.571 99.6778 69.3601 99.9146 69.1491L100.012 69.0603H100.076H100.141C101.302 68.9526 102.472 69.0388 103.607 69.3156L107.073 70.2372C107.073 70.2372 105.189 69.3934 104.285 69.0381C103.381 68.6828 101.885 68.2387 101.249 68.0721C101.626 67.7723 102.014 67.4837 102.433 67.1839H102.541C102.766 67.1019 102.996 67.0352 103.23 66.984C104.366 66.937 105.503 67.0491 106.61 67.3171C107.805 67.5947 110.324 68.272 110.324 68.272L107.094 66.873C106.169 66.5157 105.224 66.2154 104.263 65.9737C104.855 65.5962 105.437 65.2298 106.018 64.8634H106.104H106.201C107.461 64.8114 108.721 64.9612 109.936 65.3075C110.916 65.5962 113.166 66.2845 113.166 66.2845C112.234 65.7555 111.275 65.281 110.291 64.8634L107.719 63.9862C108.225 63.6976 108.698 63.4533 109.15 63.2201C110.234 63.1355 111.323 63.2254 112.38 63.4866L115.265 64.2527C115.265 64.2527 113.618 63.4644 112.907 63.209L110.7 62.4429L111.476 62.0765C111.823 61.9333 112.184 61.8255 112.552 61.7545C113.649 61.5891 114.768 61.6648 115.835 61.9766L117.751 62.7427C117.751 62.7427 116.675 62.0654 116.126 61.7545C115.467 61.4225 114.787 61.1369 114.091 60.8996L114.856 60.5776C115.993 60.4884 117.138 60.5594 118.257 60.7886C118.957 60.9773 120.776 61.5991 120.776 61.5991C120.776 61.5991 118.903 60.6665 118.472 60.4888C118.042 60.3112 116.998 60.0114 116.632 59.8671L116.847 59.7893C121.928 60.5722 126.866 62.1366 131.497 64.4304C130.808 64.6191 129.979 64.8967 129.344 65.1187L128.763 65.3186C127.331 65.8515 124.554 67.1173 123.284 67.7835C120.552 69.0413 117.973 70.625 115.598 72.5022C113.226 74.383 111.08 76.5485 109.204 78.953C108.32 80.0691 107.493 81.2328 106.728 82.4393C101.291 81.0335 95.7371 80.1563 90.1406 79.819C90.2698 79.6303 91.4754 78.0426 91.7768 77.6762H91.906L92.4872 77.5096C93.6126 77.3744 94.752 77.4382 95.8565 77.6984C97.3097 77.9426 99.7639 78.4534 99.7639 78.4534C98.7096 77.9672 97.6318 77.5373 96.5346 77.1654V77.1099ZM109.678 80.9515C109.887 80.834 110.102 80.7302 110.324 80.6407C110.835 80.4606 111.361 80.3269 111.895 80.241C112.766 80.1203 113.651 80.1768 114.5 80.4075C115.243 80.5629 117.977 81.6843 117.977 81.6843C116.985 81.0387 115.953 80.4601 114.888 79.9523C113.811 79.4965 112.676 79.2012 111.519 79.0751H111.325C111.798 78.5977 112.401 77.6762 112.713 77.3875L112.907 77.2209L113.069 77.1654C113.234 77.1056 113.403 77.0574 113.575 77.0211C114.819 76.9718 116.065 77.0686 117.288 77.3098C118.419 77.4985 121.045 78.309 121.045 78.309C119.984 77.7406 118.887 77.2472 117.762 76.8323C116.623 76.4705 115.466 76.174 114.296 75.9441L116.233 74.3342L116.416 74.2787C116.555 74.2212 116.699 74.1802 116.847 74.1565C118.058 74.0246 119.282 74.1339 120.453 74.4785C122.218 74.8671 124.145 75.4001 124.145 75.4001C124.145 75.4001 121.992 74.3675 120.668 73.9234C119.85 73.6347 118.515 73.2905 117.783 73.124C118.009 72.9685 118.225 72.802 118.429 72.6465L118.591 72.5244C119.107 72.1469 119.667 71.7583 120.173 71.4141C121.401 71.359 122.63 71.509 123.811 71.8582L127.127 72.9685C127.127 72.9685 125.146 71.7916 124.188 71.3697C123.435 71.0366 122.089 70.6369 121.562 70.4704L122.025 70.1595L123.919 69.0492C124.675 68.9986 125.433 69.0889 126.158 69.3156C126.815 69.4933 129.054 70.4259 129.054 70.4259L127.019 69.138C126.448 68.8223 125.859 68.5441 125.254 68.3053L126.815 67.4948C127.672 67.4409 128.531 67.5195 129.366 67.7279C130.107 67.9636 130.827 68.2644 131.519 68.6273C130.952 68.1817 130.359 67.7738 129.743 67.406C129.284 67.163 128.813 66.9444 128.332 66.7509C128.935 66.4733 129.656 66.1624 130.367 65.8626L130.647 65.7405C131.284 65.7151 131.92 65.8169 132.52 66.0403L132.735 66.118C134.691 70.2607 136.109 74.6507 136.955 79.1751C135.878 79.5415 134.393 80.1077 133.844 80.352C131.715 81.2881 129.678 82.4333 127.762 83.7717C126.418 84.8042 125.226 86.0306 124.22 87.4134C123.973 87.7576 123.747 88.124 123.553 88.4571C118.744 86.1588 113.748 84.3012 108.623 82.9056C108.827 82.7835 109.495 81.2291 109.678 81.0071V80.9515ZM126.19 89.2676C127.488 89.2586 128.771 89.5468 129.947 90.1115C131.25 90.7443 132.8 91.7436 132.8 91.7436C131.945 90.7647 130.933 89.9458 129.807 89.3232C128.66 88.698 127.419 88.2776 126.137 88.0796L126.589 87.6022C126.804 87.369 127.008 87.147 127.224 86.936H127.353C127.55 86.865 127.751 86.8094 127.956 86.7695C129.005 86.6549 130.066 86.8074 131.045 87.2136C132.084 87.718 133.098 88.2776 134.081 88.8901C133.207 88.0647 132.263 87.3216 131.26 86.6695C130.442 86.2087 129.554 85.8934 128.634 85.7369L128.946 85.5037L129.301 85.2373C129.721 84.9264 130.162 84.6044 130.604 84.3268C131.387 84.2776 132.173 84.3831 132.918 84.6377C133.785 84.9943 134.633 85.3983 135.458 85.8479C134.867 85.3282 134.237 84.8568 133.575 84.4379C133.069 84.1714 132.197 83.7273 131.756 83.5607H131.82L132.897 82.9723C133.144 82.8168 133.693 82.5281 134.102 82.3283C134.72 82.3705 135.331 82.4898 135.921 82.6836C136.395 82.8501 137.364 83.3609 137.364 83.3609C137.364 83.3609 136.567 82.7391 136.18 82.4837C135.832 82.243 135.473 82.0207 135.103 81.8176L135.243 81.751C135.943 81.4068 136.61 81.0737 136.901 80.9071L137.256 80.7517C137.756 83.7181 138.012 86.723 138.02 89.7339C138.018 92.1666 137.856 94.5963 137.536 97.0064C133.728 94.2125 129.716 91.729 125.534 89.5785C125.746 89.4598 125.965 89.356 126.19 89.2676ZM104.446 39.8484C115.443 44.0914 124.713 52.0674 130.733 62.4651C125.609 59.7005 113.004 57.0469 104.446 56.9137V39.8484ZM114.479 59.3563L114.856 59.4118C112 60.2385 109.231 61.3542 106.589 62.7427C103.709 64.1992 101.009 66.0071 98.5476 68.1276C95.8374 70.3892 93.3332 72.9015 91.0663 75.6332C89.85 77.1099 88.8489 78.4423 87.9232 79.8079H87.4926C83.2095 79.6853 78.9236 79.9005 74.6723 80.4519L74.1664 80.5185C72.0135 80.7961 69.9467 81.1514 67.8477 81.6288C67.9769 81.429 69.3655 79.5193 69.5269 79.2972C69.8461 79.0881 70.1851 78.9133 70.5388 78.7754C70.9439 78.6023 71.3663 78.4757 71.7982 78.3979C73.0175 78.1194 74.2631 77.9816 75.5119 77.9871C76.696 77.9871 79.3871 78.2646 79.3871 78.2646C78.1879 77.8947 76.9649 77.6127 75.7272 77.4208C74.0156 77.232 72.7778 77.2765 71.7444 77.2098C71.5661 77.1809 71.3864 77.1624 71.2062 77.1543C71.5722 76.6991 72.0888 75.7776 72.5087 75.289C72.857 75.1501 73.2175 75.046 73.5851 74.9781C74.9285 74.8612 76.2809 74.9172 77.6109 75.1447C78.4721 75.3223 80.7218 75.7332 80.7218 75.7332C80.7218 75.7332 78.4506 74.8116 77.2342 74.4674C76.1101 74.1662 74.9659 73.951 73.8111 73.8235C74.1986 73.3904 74.8015 72.6465 75.0813 72.369C75.4309 72.2311 75.7909 72.1234 76.1578 72.047C77.4214 71.9778 78.6884 72.0823 79.9253 72.3579C80.851 72.5577 83.1546 73.2239 83.1546 73.2239C82.1412 72.6343 81.0784 72.1401 79.9791 71.7472C79.2471 71.5251 77.4818 71.0588 76.6314 70.9256C77.0189 70.5592 77.7078 69.9818 78.0523 69.6265H78.1707C78.3886 69.5446 78.6115 69.4779 78.8381 69.4267C80.0152 69.3293 81.1999 69.4268 82.3473 69.7154C83.2407 69.9707 84.9522 70.326 84.9522 70.326C84.9522 70.326 82.5841 69.3379 82.0781 69.1602C81.2476 68.8276 80.395 68.5567 79.527 68.3497L80.2805 67.739L80.8187 67.306H80.9802L81.2385 67.2283C82.3218 67.1394 83.412 67.2293 84.4678 67.4948C85.3828 67.7168 87.6971 68.3386 87.6971 68.3386C87.6971 68.3386 86.1793 67.5947 85.2105 67.2283C84.5324 66.9507 82.8962 66.4178 82.2181 66.2512C82.3759 66.1106 82.5374 65.9774 82.7025 65.8515C83.1008 65.5629 83.6282 65.1965 84.231 64.7412C85.4576 64.6789 86.6865 64.7986 87.8801 65.0965L90.2267 65.796C90.2267 65.796 88.9027 65.041 88.1707 64.6857C87.7509 64.5081 86.1255 63.9862 85.6088 63.8197C86.1901 63.4533 86.7822 63.098 87.3742 62.7094C88.2797 62.6127 89.1943 62.6576 90.0868 62.8426C90.8403 63.0203 91.4862 63.3423 92.1536 63.531C91.6678 63.1649 91.1528 62.8418 90.6143 62.5651C90.216 62.3985 89.2795 62.0765 88.7628 61.91L89.667 61.4104C90.0173 61.2805 90.3773 61.1802 90.7434 61.1106C91.822 60.9701 92.9164 61.034 93.9727 61.2993C94.5648 61.4992 96.244 61.8878 96.244 61.8878C96.244 61.8878 94.963 61.2771 94.2634 60.9662C93.5637 60.6554 92.681 60.3556 92.1105 60.189L92.8209 59.8337H92.9932H93.1654C94.3497 59.7357 95.5414 59.8067 96.7069 60.0447C97.4388 60.2335 98.7198 60.5221 98.7198 60.5221C98.1178 60.21 97.4997 59.9321 96.8683 59.6894C96.3086 59.5006 95.2967 59.212 94.8446 59.0565C101.375 58.304 107.97 58.3935 114.479 59.323V59.3563ZM36.5773 76.6658C36.8034 75.7332 37.0509 74.8227 37.32 73.9123L39.7205 74.7339C38.9898 74.9643 38.3394 75.4077 37.8475 76.0107C38.3947 75.6843 38.9977 75.4694 39.6236 75.3779C39.9816 75.3419 40.3421 75.3419 40.7 75.3779H41.1521C41.7223 75.5595 42.2767 75.7898 42.8098 76.0662C41.8687 76.3343 41.0045 76.8333 40.291 77.5207C41.0263 77.2109 41.7967 76.9982 42.5838 76.8879C42.9903 76.8266 43.4002 76.7932 43.8109 76.7879C43.9615 76.8272 44.1062 76.887 44.2415 76.9656L45.3179 77.5762C44.1202 78.1762 42.9964 78.9217 41.9702 79.7968C43.0366 79.2351 44.164 78.8065 45.3287 78.52C45.7155 78.4855 46.1045 78.4855 46.4913 78.52L46.7604 78.6976L47.6861 79.4082C47.1142 79.6506 46.5692 79.9559 46.0607 80.3187C45.4547 80.777 44.8924 81.2937 44.3814 81.862C45.0763 81.4001 45.795 80.9776 46.5343 80.5962C47.0966 80.3708 47.6815 80.2107 48.2781 80.1188C48.6226 80.4963 49.1931 80.9959 49.5376 81.429C46.7924 84.5118 44.2907 87.8162 42.0563 91.3106C39.699 92.654 37.4492 94.0863 35.3394 95.5519C35.1106 93.5768 34.992 91.5898 34.9842 89.6007C34.9833 85.4351 35.4566 81.2838 36.3943 77.232C36.3943 77.232 36.3943 77.1765 36.3943 77.1543C36.4259 76.9739 36.4691 76.7959 36.5235 76.6214L36.5773 76.6658ZM44.5644 64.2749C45.0017 64.1869 45.4512 64.1869 45.8884 64.2749L46.9649 64.5303C46.3089 64.9701 45.683 65.4561 45.0919 65.9848C45.0919 65.9848 47.0079 65.4074 47.8906 65.2409C48.291 65.159 48.7011 65.1403 49.107 65.1854C49.1823 65.1854 49.3976 65.252 49.473 65.2631H49.5483L50.6248 65.6073C49.807 66.0534 49.0505 66.6097 48.375 67.2616C49.418 66.8435 50.5002 66.5384 51.6043 66.3512C51.9808 66.33 52.3581 66.33 52.7346 66.3512L54.3277 66.8841C53.2833 67.2578 52.3645 67.9321 51.6797 68.8271C52.7229 68.2532 53.8443 67.8451 55.0058 67.6169C55.3891 67.583 55.7744 67.583 56.1576 67.6169L57.557 68.1609C56.3156 68.6613 55.2084 69.4608 54.3277 70.4926C54.3277 70.4926 56.0823 69.6043 56.8681 69.3046C57.7306 68.9593 58.6619 68.8373 59.5807 68.9493L62.1211 70.0596C59.8728 71.6656 57.7164 73.4043 55.6625 75.2668C54.1662 76.6547 52.6592 78.1758 50.9262 80.0411C49.2192 78.3779 47.3589 76.8904 45.3718 75.5999C43.5624 74.6519 41.6702 73.8824 39.7205 73.3016H39.6451C39.0143 73.1197 38.3748 72.9714 37.7291 72.8575C38.7579 69.7179 40.0697 66.6846 41.6473 63.7975C42.3136 63.8145 42.9784 63.8701 43.6387 63.964C43.1629 64.2386 42.7513 64.6177 42.4331 65.0743C43.1231 64.753 43.8355 64.4858 44.5644 64.2749ZM47.6107 87.047H47.6646L47.9014 86.8583C48.2566 86.5902 48.6392 86.3631 49.0424 86.181C49.9209 85.8423 50.8414 85.6329 51.7765 85.5592C52.1102 85.5592 53.2728 85.4482 53.7895 85.4815C53.2434 85.3121 52.6857 85.1859 52.121 85.104C51.3549 84.9869 50.5811 84.9313 49.8067 84.9375H49.3223C49.9574 84.1714 50.614 83.3942 51.2814 82.6281C51.5496 82.4415 51.8302 82.2746 52.121 82.1284C53.2976 81.7926 54.5182 81.6502 55.7378 81.7065C57.3965 81.7056 59.0538 81.8094 60.7002 82.0174C59.3183 81.5652 57.9037 81.2273 56.4698 81.0071C55.3395 80.8849 53.5096 80.896 52.7884 80.896C53.3697 80.2521 53.8648 79.6525 54.4138 79.1084C54.751 78.8543 55.1115 78.6349 55.4902 78.4534C56.6922 78.1104 57.9354 77.9459 59.1824 77.9648C60.0543 77.9648 63.2298 78.2091 63.2298 78.2091C63.2298 78.2091 60.5602 77.554 59.7099 77.443C58.5303 77.3056 57.3446 77.2315 56.1576 77.2209L56.3944 76.9767C57.0403 76.4215 57.7292 75.8664 58.5473 75.1447H58.6657C58.8775 75.0472 59.0973 74.9692 59.3223 74.9115C60.4269 74.7402 61.5477 74.7104 62.6593 74.8227L65.8886 75.2002C65.8886 75.2002 63.7357 74.5229 63.1114 74.3786C62.487 74.2343 60.9585 73.9567 60.2804 73.8345C61.0123 73.2572 61.7659 72.7243 62.4871 72.1691H62.5839C62.8261 72.0375 63.078 71.9261 63.3374 71.836C64.474 71.6002 65.6356 71.518 66.7928 71.5918C67.7185 71.5918 69.7637 71.9248 69.7637 71.9248C69.7637 71.9248 67.9015 71.3253 67.1265 71.1809C66.6313 71.081 65.1028 70.8368 64.5538 70.7479C65.458 70.1262 66.3514 69.5377 67.1911 69.0048L67.3525 68.9271L67.5032 68.8715C68.59 68.6171 69.7063 68.5236 70.8186 68.594C72.1211 68.7272 73.0361 68.8382 72.9715 68.8493C72.3809 68.6093 71.777 68.4054 71.1631 68.2387C70.4529 68.0789 69.734 67.964 69.0102 67.8945C69.8822 67.3837 70.7433 66.8952 71.5829 66.4511L71.7121 66.3845H71.8305C72.6839 66.1816 73.5623 66.1142 74.4355 66.1846C75.0621 66.2488 75.6818 66.3714 76.2869 66.551C75.8879 66.2239 75.4254 65.9891 74.9306 65.8626C74.7046 65.7849 73.9511 65.574 73.5528 65.4629C74.1771 65.1521 74.823 64.8523 75.4796 64.5525H75.5442C76.4152 64.399 77.3025 64.3691 78.1814 64.4637C78.8919 64.5303 79.7315 64.5636 79.6885 64.5858C79.3799 64.4124 79.0553 64.2711 78.7197 64.1639C78.1922 63.9862 77.7401 63.9196 77.3741 63.7753L78.8273 63.1868L80.9802 62.3652C81.9427 62.2047 82.924 62.2047 83.8865 62.3652C83.8865 62.3652 83.6067 62.2098 83.3483 62.0987C82.8639 61.91 82.7993 61.9322 82.541 61.799C85.1308 60.9183 87.7737 60.2136 90.4528 59.6894C88.2138 60.6887 86.0179 61.8434 84.2956 62.8204L84.1987 62.876L83.9834 62.9981C83.0146 63.5532 82.2181 64.0418 81.6583 64.397C78.8603 66.2489 76.2399 68.3718 73.8327 70.7368C71.4668 73.1245 69.279 75.6928 67.2879 78.4201C66.4268 79.6081 65.5656 80.9071 64.6614 82.3838C60.803 83.3271 57.0093 84.5325 53.3051 85.9923H53.2513C50.7432 86.9804 48.2781 88.0907 45.8777 89.3232C46.5881 88.4238 47.1156 87.7243 47.6107 87.047ZM82.9823 50.1853C83.0294 49.3539 83.3828 48.5725 83.9701 48.0011C84.5574 47.4296 85.3343 47.1113 86.1417 47.1113C86.9491 47.1113 87.7259 47.4296 88.3133 48.0011C88.9006 48.5725 89.2539 49.3539 89.301 50.1853V57.3245L82.9931 58.9788L82.9823 50.1853ZM77.9985 18.9194L82.3042 18.4309V20.9735L77.5463 20.4294C77.7511 19.9409 77.9167 19.4358 78.0415 18.9194H77.9985ZM69.6238 35.4961L78.7843 34.4524L69.6238 33.4199V32.8425L78.7843 31.8099L69.6238 30.7663V30.2L78.7843 29.1563L69.6238 28.1126V27.5464L78.8273 26.5249L73.0899 25.881C73.7754 25.4889 74.4116 25.0116 74.9844 24.4598L81.8736 23.6826L76.2439 23.0386C76.5535 22.6175 76.8306 22.172 77.0727 21.7063L82.3903 21.1067V24.5375H89.2795V18.4309C89.2478 17.5219 88.8792 16.66 88.2498 16.0229C87.6205 15.3858 86.7781 15.0219 85.8964 15.0063C85.0147 14.9906 84.1607 15.3244 83.5104 15.9388C82.8602 16.5532 82.4631 17.4014 82.4011 18.3088L78.203 17.8313C78.2412 17.4997 78.2592 17.166 78.2568 16.8321V16.6322C78.2509 16.5287 78.2509 16.4249 78.2568 16.3213L82.9716 15.7884L78.3752 15.2665C78.4561 14.7466 78.5896 14.2367 78.7735 13.7454L84.1556 13.1348L79.4086 12.5907C79.693 12.1084 80.021 11.6549 80.3881 11.2362L85.2967 10.681L81.5399 10.2591C82.8268 9.29811 84.3753 8.78126 85.9641 8.78243H86.104C88.1339 8.7883 90.0789 9.62341 91.5133 11.105C92.9477 12.5866 93.7546 14.5939 93.7574 16.6877V16.8876C93.7738 19.3187 94.6115 21.6678 96.1264 23.5302C97.6413 25.3927 99.7385 26.652 102.057 27.0912V35.7737H69.6669L69.6238 35.4961ZM83.7897 23.0275V18.4087C83.7893 17.9923 83.9116 17.5857 84.1403 17.2427C84.3691 16.8996 84.6935 16.6364 85.0706 16.4879V23.0275H83.7897ZM86.513 23.0275V16.5323C86.8901 16.6808 87.2146 16.944 87.4433 17.2871C87.6721 17.6301 87.7944 18.0367 87.794 18.4531V23.0719L86.513 23.0275ZM69.6238 56.1476L78.6874 55.1261L69.6238 54.0935V53.5051L78.6874 52.4725L69.6238 51.4399V50.8515L78.6874 49.8189L69.6238 48.7863V48.1979L78.6874 47.1653L69.6238 46.1438V45.5443L78.6874 44.5228L69.6238 43.4902V42.9018L78.6874 41.8692L69.6238 40.8366V40.2482L78.6874 39.2156L69.6238 38.183H102.014V56.9581C98.4103 56.9013 94.8088 57.165 91.2493 57.7464V50.2297C91.1889 48.8714 90.6233 47.5893 89.67 46.6502C88.7167 45.711 87.4492 45.1869 86.1309 45.1869C84.8126 45.1869 83.5451 45.711 82.5918 46.6502C81.6385 47.5893 81.0729 48.8714 81.0125 50.2297V58.9566L81.0878 59.8781C79.3688 60.4079 77.7005 61.0991 76.1039 61.9433L74.0479 61.4992C73.7788 61.2882 72.8423 60.4555 72.5409 60.2445L78.3644 59.5784L69.9683 58.6235L69.6669 58.457L78.6012 57.4466L69.613 56.4251L69.6238 56.1476ZM67.4709 59.5562L64.8337 60.8108L67.7939 60.3889C68.2284 60.3222 68.6683 60.2998 69.1071 60.3223H69.2686H69.3439C69.7207 60.5332 70.2374 60.8552 70.5603 61.044C69.6346 61.377 67.6001 62.2986 67.6001 62.2986C67.6001 62.2986 69.5162 61.9544 70.4204 61.91C70.9899 61.9063 71.5587 61.9509 72.1211 62.0432C72.5879 62.3752 73.0272 62.7466 73.4344 63.1535C70.1174 64.7266 66.9187 66.5526 63.8649 68.6162C55.8024 64.064 45.6947 62.7205 42.2501 62.3874C44.1183 59.1538 46.3159 56.1352 48.8056 53.3829L50.6893 53.827C50.1385 54.2482 49.6137 54.7043 49.1177 55.1927C50.0255 54.7942 50.9706 54.4929 51.938 54.2934H52.4655C53.0037 54.4377 53.6926 54.6709 54.2846 54.8374C53.8325 55.1261 52.4977 56.2253 52.4977 56.2253C53.5457 55.8067 54.6259 55.4799 55.727 55.2482H55.8777L57.8799 55.8367C57.3632 56.1809 55.5979 57.4577 55.5979 57.4577C56.7507 57.0106 57.93 56.6398 59.1286 56.3474H59.4515L61.1415 56.8915C60.3915 57.4247 59.6727 58.0031 58.9887 58.6235C59.9514 58.2131 60.9405 57.8718 61.9488 57.6021C62.2514 57.5518 62.5573 57.5258 62.8638 57.5243C63.3051 57.6798 64.1125 57.9574 64.543 58.1239C63.6926 58.6013 61.9704 59.7227 61.9704 59.7227C61.9704 59.7227 63.908 59.2009 64.7906 59.0121C65.2183 58.9117 65.6546 58.8559 66.0931 58.8456H66.2546C66.6206 59.0343 67.2341 59.4007 67.5678 59.5562H67.4709ZM49.7636 52.4281C54.712 47.2006 60.6569 43.0875 67.2234 40.3481V57.2134C61.6228 54.8641 55.7561 53.2561 49.7636 52.4281ZM67.2234 32.8092V35.6848H64.1663C64.0006 35.6686 63.8334 35.6882 63.6755 35.7424C63.5175 35.7967 63.3723 35.8844 63.2492 35.9999C63.126 36.1154 63.0276 36.2562 62.9603 36.4132C62.8929 36.5702 62.8582 36.74 62.8582 36.9117C62.8582 37.0834 62.8929 37.2532 62.9603 37.4102C63.0276 37.5673 63.126 37.708 63.2492 37.8236C63.3723 37.9391 63.5175 38.0268 63.6755 38.081C63.8334 38.1353 64.0006 38.1549 64.1663 38.1386H67.2234C57.3053 42.1035 48.7547 49.0215 42.6591 58.0129C34.9412 69.3007 31.667 83.1904 33.4987 96.8732L33.2081 97.0841C32.8528 97.3395 32.4976 97.5948 32.1316 97.8613L32.0778 97.4727C32.0618 97.3483 32.0222 97.2284 31.9613 97.1198C31.9003 97.0112 31.8192 96.9161 31.7226 96.8398C31.5255 96.6868 31.2784 96.6191 31.0337 96.6511C30.7888 96.6884 30.5682 96.8241 30.4201 97.0286C30.3456 97.1287 30.2911 97.243 30.2597 97.365C30.2282 97.487 30.2206 97.6141 30.2371 97.7392L30.3125 98.2166C30.3281 98.3648 30.3798 98.5066 30.4625 98.6288C30.5453 98.7511 30.6566 98.8499 30.7861 98.9161L29.0207 100.348C26.4573 86.236 28.9048 71.6434 35.9158 59.2395C42.9268 46.8357 54.0325 37.4496 67.2018 32.7981L67.2234 32.8092ZM26.1144 44.0454C27.4384 39.1823 30.1402 28.5012 31.3136 25.1037C32.0059 23.0798 32.4366 20.9706 32.5945 18.8306L32.7021 18.764C33.2056 20.0653 33.4402 21.4607 33.3911 22.8609C33.3911 24.2044 33.0466 27.1356 33.0466 27.1356C33.687 25.7263 34.1326 24.2313 34.3706 22.6944C34.4587 21.3129 34.4154 19.9258 34.2415 18.553H35.0272C35.4917 19.9251 35.6999 21.3756 35.6408 22.8276C35.6408 24.3598 35.3071 27.3798 35.3179 27.2688C35.8929 25.8009 36.3186 24.2753 36.5881 22.7166C36.7661 21.3237 36.7661 19.9126 36.5881 18.5197H37.2447C37.6018 19.8526 37.8077 21.2237 37.8583 22.6056C37.8583 24.049 37.643 27.3243 37.643 27.3243C38.1717 25.8086 38.5715 24.2483 38.8378 22.6611C38.9477 21.283 38.9477 19.8978 38.8378 18.5197H39.4944C39.8338 19.9108 40.1032 21.3191 40.3018 22.7388C40.3987 23.8491 40.3018 27.3243 40.3018 27.3243C40.7729 25.8067 41.0975 24.2447 41.2706 22.6611C41.3155 21.2784 41.2615 19.8942 41.1091 18.5197H41.7657C42.0887 20.0186 42.4439 21.6285 42.5515 22.6833C42.7022 24.0823 42.713 27.18 42.713 27.18C43.2036 25.6945 43.5039 24.1492 43.6064 22.5834C43.5934 21.2256 43.5144 19.8693 43.3696 18.5197H44.0262C44.3384 20.0297 44.7474 21.9061 44.812 22.6833C44.8766 23.4605 45.0919 27.3799 45.0919 27.3799C45.5858 25.8311 45.8472 24.2136 45.8669 22.5834C45.8669 20.8846 45.7485 20.063 45.6193 18.5197H46.276C46.6199 19.8904 46.8859 21.2806 47.0725 22.6833C47.1586 23.7936 47.4816 27.3243 47.4816 27.3243C47.8042 25.8248 48.0236 24.3036 48.1382 22.7721C48.1382 21.784 47.9983 20.063 47.8799 18.5197H48.5365C48.8594 20.0186 49.3223 22.6833 49.3223 22.6833L49.8605 27.3243C50.188 25.7662 50.3611 24.1777 50.3772 22.5834C50.3772 21.6729 50.2588 20.063 50.1404 18.5197H50.84C51.1522 20.0297 51.4213 21.3954 51.6258 22.6833L51.9703 27.3799C52.348 25.8066 52.5858 24.2012 52.6808 22.5834C52.6768 21.2249 52.5941 19.868 52.4332 18.5197H53.0898C53.4127 20.0297 53.8218 22.0282 53.9294 22.8276C54.037 23.6271 54.2416 27.2688 54.2416 27.2688C54.6564 25.7802 54.8843 24.2429 54.9197 22.6944C54.9184 21.2996 54.843 19.906 54.6937 18.5197H55.3503C55.6732 20.0075 56.093 22.0504 56.1684 22.9609C56.2437 23.8713 56.5129 27.3243 56.5129 27.3243C56.8785 25.7724 57.1055 24.1892 57.191 22.5945C57.1951 21.2361 57.116 19.8789 56.9542 18.5308H57.6108C57.9415 19.9145 58.2002 21.3155 58.3858 22.7277C58.5258 24.049 58.6119 27.3465 58.6119 27.3465C59.1204 25.8219 59.3681 24.2177 59.3439 22.6056C59.3439 20.9957 59.3439 20.3073 59.2578 19.2192C59.5594 19.5207 59.7689 19.9067 59.8606 20.3295L62.4763 31.5212L62.7885 32.8536C51.7521 37.2073 42.2148 44.8383 35.3825 54.7819C28.341 65.0194 24.5775 77.2707 24.6181 89.8228C24.6334 92.155 24.7916 94.4838 25.0918 96.7954L18.6332 97.506L25.2209 97.6059C25.3178 98.3165 25.4362 99.0382 25.5546 99.771L15.2747 100.615L25.7592 100.904C25.8453 101.381 25.9314 101.858 26.0283 102.347L13.4555 103.235L25.4039 103.701C25.3517 103.759 25.294 103.811 25.2317 103.857C24.8119 104.245 24.3921 104.623 23.983 104.967L12.5406 105.867L22.7128 106.277L21.4104 107.621L10.646 108.076L26.1144 44.0454ZM10.5384 108.576L20.1402 108.975C19.9034 109.231 19.6881 109.497 19.462 109.764L18.9884 110.308L10.0217 110.685L10.5384 108.576ZM9.87101 111.307L17.8474 111.64L17.7397 111.773C17.3953 112.173 17.0616 112.562 16.7279 112.972L9.39737 113.283L9.87101 111.307ZM9.21438 114.038L15.673 114.316C15.3285 114.749 14.9948 115.193 14.6611 115.648L8.74075 115.892L9.21438 114.038ZM8.55776 116.747L13.6923 116.969C13.4986 117.236 13.3156 117.514 13.1326 117.791L12.7989 118.269L8.13795 118.468L8.55776 116.747ZM7.91189 119.423L11.9055 119.59L11.7009 119.878C11.4641 120.234 11.2165 120.578 10.9905 120.989L7.50286 121.133L7.91189 119.423ZM7.25527 122.121L10.1832 122.243C10.0002 122.554 9.80643 122.865 9.62343 123.187L9.37584 123.609L6.86775 123.709L7.25527 122.121ZM6.59864 124.83L8.61158 124.908L8.50393 125.097C8.28865 125.463 8.07336 125.83 7.86884 126.207L6.24343 126.296L6.59864 124.83ZM5.97433 127.373L7.21222 127.451L6.66324 128.505V128.583H5.71598L5.97433 127.373ZM5.39304 129.793H5.98508L5.88821 129.993L5.40381 130.948H5.10241L5.39304 129.793ZM40.7216 126.629L41.798 125.519C41.8332 125.623 41.884 125.72 41.9487 125.807L42.2393 126.185C42.3985 126.378 42.6236 126.501 42.868 126.528C43.1124 126.555 43.3575 126.484 43.5526 126.329C43.647 126.252 43.7256 126.155 43.7838 126.046C43.842 125.937 43.8786 125.817 43.8917 125.693C43.9047 125.569 43.8938 125.444 43.8596 125.324C43.8254 125.205 43.7686 125.094 43.6925 124.997L43.4019 124.619C43.3018 124.489 43.1725 124.386 43.0251 124.32L44.1877 123.209C49.5221 130.338 56.4559 136.023 64.3923 139.775L65.7271 145.482C55.8889 141.652 47.2453 135.136 40.7216 126.629ZM59.1394 117.325L59.4515 118.679H49.7636C50.4095 118.224 51.0661 117.758 51.7442 117.314L59.1394 117.325ZM53.9294 115.948C54.7583 115.437 55.5441 114.982 56.3083 114.56H58.4612L58.7841 115.959L53.9294 115.948ZM59.7852 120.067L60.1081 121.444H46.2329C46.7819 120.989 47.3093 120.522 47.9444 120.067H59.7852ZM60.1727 135.189C59.4623 134.745 58.7518 134.29 58.0199 133.813H62.9499L63.2836 135.201L60.1727 135.189ZM63.6496 136.588L63.8003 137.232L62.5516 136.588H63.6496ZM56.1146 132.436C55.4795 131.958 54.8982 131.503 54.3707 131.059H62.3471L62.6593 132.436H56.1146ZM52.7776 129.671C52.2502 129.194 51.7658 128.75 51.3137 128.317H61.7013L62.0242 129.682L52.7776 129.671ZM49.9574 126.951C49.5376 126.518 49.1178 126.063 48.7087 125.608H61.0554L61.3783 126.984L49.9574 126.951ZM47.46 124.175C47.1264 123.776 46.7711 123.331 46.3836 122.821H60.3772L60.7002 124.186L47.46 124.175ZM105.824 145.793L107.17 140.43C115.452 136.839 122.731 131.167 128.343 123.931C129.42 124.908 130.41 125.93 131.379 126.973C124.757 135.608 115.901 142.132 105.835 145.793H105.824ZM119.99 117.325C120.668 117.769 121.336 118.235 121.971 118.69H112.606L112.95 117.325H119.99ZM113.273 115.948L113.618 114.571H115.426C116.19 114.993 116.965 115.437 117.794 115.948H113.273ZM123.779 120.067C124.36 120.522 124.931 120.978 125.48 121.444H111.928L112.272 120.067H123.779ZM126.632 122.821C126.255 123.298 125.9 123.753 125.555 124.186H111.239L111.583 122.821H126.632ZM124.339 125.563C123.908 126.052 123.51 126.496 123.079 126.94H110.561L110.894 125.563H124.339ZM121.68 128.317C121.153 128.839 120.679 129.283 120.227 129.693H109.839L110.184 128.317H121.68ZM118.655 131.059C118.085 131.525 117.504 131.992 116.912 132.436H109.183L109.527 131.059H118.655ZM115.039 133.813C114.35 134.29 113.65 134.745 112.939 135.189H108.505L108.849 133.813H115.039ZM110.539 136.566C109.613 137.077 108.709 137.532 107.805 137.954L108.16 136.566H110.539ZM168.591 147.136C168.449 147.65 168.258 148.149 168.021 148.624C167.892 148.899 167.74 149.163 167.568 149.412H167.095C167.213 148.18 167.278 147.192 167.299 146.192C167.351 144.898 167.26 143.602 167.03 142.329L166.546 140.108V142.329C166.529 143.562 166.366 144.789 166.061 145.981C165.825 147.092 165.523 148.202 165.168 149.312H164.813C164.931 148.058 164.985 147.092 165.007 146.115C165.063 144.82 164.973 143.524 164.737 142.251L164.253 140.03V142.251C164.234 143.483 164.075 144.709 163.779 145.904C163.543 147.014 163.241 148.124 162.886 149.235H162.52C162.638 147.98 162.703 147.014 162.714 146.059C162.776 144.765 162.686 143.467 162.445 142.195L161.853 139.975L162.003 142.262C161.981 143.495 161.818 144.721 161.519 145.915C161.282 146.97 160.991 148.08 160.636 149.246H160.259C160.378 148.013 160.442 147.025 160.464 146.104C160.515 144.809 160.425 143.513 160.195 142.24L159.71 140.019V142.24C159.694 143.473 159.531 144.7 159.226 145.893C159 146.936 158.699 148.035 158.354 149.168H157.977C158.064 148.28 158.15 147.169 158.171 146.048C158.227 144.754 158.137 143.457 157.902 142.184L157.418 139.964V142.184C157.399 143.417 157.24 144.643 156.944 145.837C156.707 146.87 156.417 147.958 156.072 149.09H155.685C155.771 148.213 155.857 147.114 155.878 145.993C155.941 144.698 155.85 143.401 155.609 142.129L155.136 139.908V142.129C155.108 143.361 154.945 144.587 154.651 145.782C154.425 146.803 154.135 147.88 153.79 149.013H153.403C153.489 148.091 153.575 147.025 153.596 145.937C153.648 144.643 153.557 143.347 153.327 142.073L152.843 139.853V142.073C152.821 143.306 152.658 144.532 152.358 145.726C152.132 146.736 151.842 147.813 151.497 148.935H151.11C151.196 148.024 151.282 146.97 151.304 145.893C151.36 144.598 151.27 143.302 151.034 142.029L150.55 139.808V142.029C150.533 143.262 150.37 144.489 150.066 145.682C149.85 146.681 149.56 147.747 149.215 148.868H148.699C148.774 147.958 148.849 146.992 148.871 146.026C148.928 144.735 148.838 143.442 148.602 142.173C148.602 142.173 148.128 140.13 148.096 140.108L148.15 142.229C148.13 143.461 147.971 144.687 147.676 145.882C147.525 146.537 147.342 147.236 147.116 148.035C141.023 131.158 128.729 117.435 112.896 109.841L112.369 109.664L112.068 110.607L103.585 147.547C103.487 147.977 103.261 148.365 102.939 148.657C103.015 147.858 103.069 147.047 103.09 146.237C103.185 144.942 103.094 143.64 102.821 142.373L102.337 140.152V142.373C102.32 143.606 102.157 144.833 101.852 146.026C101.637 147.036 101.346 148.113 101.002 149.235H100.507C100.593 148.313 100.668 147.258 100.69 146.181C100.752 144.887 100.662 143.589 100.421 142.317L99.9469 140.097V142.317C99.9193 143.55 99.7568 144.775 99.4625 145.97C99.2365 146.981 98.9458 148.058 98.6014 149.179H98.2031C98.2892 148.258 98.3753 147.203 98.3969 146.126C98.4532 144.831 98.3629 143.535 98.1277 142.262L97.6434 140.041V142.262C97.6239 143.494 97.4649 144.72 97.1697 145.915C96.9329 146.925 96.653 148.002 96.3086 149.124H95.8134C95.8995 148.202 95.9749 147.147 95.9964 146.07C96.059 144.776 95.9686 143.478 95.7273 142.206L95.2537 139.986V142.206C95.2314 143.439 95.0688 144.665 94.7693 145.859C94.5432 146.87 94.2526 147.947 93.9081 149.068H93.3699C93.5042 146.806 93.5258 144.538 93.4345 142.273L93.3269 140.052L92.9824 142.273C92.6379 144.494 92.089 146.792 91.5077 149.09H91.1632L90.7757 140.13L89.3118 149.09H88.9781L88.0631 140.019L87.1589 149.09H86.8144L85.2967 140.141L84.9953 149.09H84.5432C83.9751 146.857 83.5295 144.592 83.2084 142.306L82.9285 140.086L82.7563 142.306C82.6138 144.561 82.5958 146.822 82.7025 149.079H82.1643C81.8306 147.969 81.5722 147.003 81.3569 146.059C81.061 144.861 80.902 143.631 80.8833 142.395V140.175L80.3989 142.395C80.1638 143.668 80.0735 144.965 80.1298 146.259C80.1298 147.247 80.2267 148.213 80.302 149.135H79.9037C79.5808 148.024 79.3117 147.047 79.1072 146.115C78.8024 144.918 78.6397 143.688 78.6228 142.451V140.23L78.1384 142.451C77.9082 143.724 77.8179 145.02 77.8693 146.315C77.8693 147.314 77.9769 148.302 78.0523 149.19H77.5141C77.1804 148.08 76.922 147.103 76.7067 146.17C76.4108 144.972 76.2518 143.742 76.2331 142.506V140.286L75.7487 142.506C75.5136 143.779 75.4233 145.076 75.4796 146.37C75.4796 147.369 75.5765 148.357 75.6626 149.246H75.1244C74.7907 148.135 74.5216 147.158 74.3171 146.226C74.0175 145.028 73.8549 143.798 73.8327 142.562V140.341L73.3483 142.562C73.118 143.835 73.0278 145.131 73.0792 146.426C73.0792 147.403 73.176 148.38 73.2622 149.301H72.7239C72.3902 148.191 72.1319 147.214 71.9166 146.281C71.6215 145.083 71.4625 143.853 71.443 142.617V140.397L70.9586 142.617C70.7235 143.89 70.6332 145.187 70.6895 146.481C70.6895 147.48 70.7864 148.469 70.8725 149.357H70.3343C70.0006 148.246 69.7315 147.269 69.5269 146.337C69.2274 145.139 69.0648 143.909 69.0425 142.673V140.452L68.5689 142.673C68.328 143.945 68.2377 145.242 68.2998 146.537C68.2998 147.336 68.3751 148.135 68.4397 148.924C68.0453 148.619 67.7641 148.184 67.6432 147.691L59.0317 110.885L58.8379 110.008L57.8369 110.385C46.5343 115.626 36.4912 125.219 29.6235 136.444C28.7839 137.776 28.0089 139.142 27.3092 140.53C27.1262 140.874 26.9432 141.218 26.771 141.574C25.6976 143.798 24.7417 146.082 23.9077 148.413C23.6816 147.625 23.4987 146.925 23.348 146.259C23.0521 145.065 22.8931 143.839 22.8743 142.606V140.486L22.3684 142.551C22.1333 143.823 22.043 145.12 22.0993 146.414C22.0993 147.38 22.1962 148.335 22.2823 149.257H21.7764C21.4319 148.147 21.1413 147.036 20.926 146.081C20.6219 144.888 20.4593 143.662 20.4416 142.429V140.208L19.9572 142.429C19.7221 143.701 19.6318 144.998 19.6881 146.292C19.6881 147.403 19.7957 148.424 19.8818 149.335H19.4943C19.1499 148.224 18.8592 147.114 18.6332 146.126C18.3343 144.932 18.1718 143.706 18.1488 142.473V140.252L17.6751 142.473C17.4335 143.745 17.3432 145.042 17.406 146.337C17.406 147.447 17.5029 148.48 17.589 149.401H17.2123C16.857 148.291 16.5664 147.181 16.3404 146.17C16.0452 144.976 15.8862 143.75 15.8667 142.517V140.297L15.3823 142.517C15.1472 143.79 15.0569 145.087 15.1132 146.381C15.1132 147.491 15.2209 148.602 15.307 149.479H14.9302C14.575 148.369 14.2844 147.258 14.0476 146.226C13.7524 145.031 13.5934 143.805 13.5739 142.573V140.352L13.0895 142.573C12.8544 143.846 12.7641 145.142 12.8204 146.437C12.8204 147.547 12.9388 148.657 13.0142 149.557H12.6374C12.293 148.446 11.9916 147.336 11.7655 146.226C11.4615 145.033 11.2988 143.806 11.2811 142.573V140.352L10.7967 142.573C10.5658 143.846 10.4755 145.142 10.5276 146.437C10.5276 147.369 10.6137 148.346 10.7322 149.579H10.3554C10.0109 148.468 9.70955 147.358 9.47273 146.248C9.1792 145.053 9.0167 143.828 8.98832 142.595L9.1498 140.308L8.547 142.528C8.30612 143.8 8.21575 145.098 8.27789 146.392C8.27789 147.325 8.35323 148.313 8.47164 149.557H8.10566C7.75043 148.446 7.44903 147.336 7.21222 146.226C6.91702 145.031 6.75806 143.805 6.73858 142.573V140.352L6.25419 142.573C6.0179 143.845 5.92758 145.142 5.98508 146.437C5.98508 147.392 6.0712 148.38 6.18961 149.623H5.82361C5.46839 148.513 5.16699 147.347 4.93018 146.292C4.62613 145.099 4.46348 143.873 4.44578 142.639V140.419L3.96138 142.639C3.73044 143.913 3.64016 145.209 3.69228 146.503C3.69228 147.458 3.77839 148.48 3.8968 149.723H3.4447C3.2727 149.474 3.12146 149.21 2.9926 148.935C2.75712 148.459 2.56608 147.961 2.42208 147.447C2.14441 146.418 2.04243 145.348 2.12068 144.283C2.12795 144.164 2.12795 144.046 2.12068 143.927C2.16149 143.388 2.24794 142.853 2.37903 142.329C3.294 139.553 5.24234 134.557 6.41565 131.859C7.50644 129.571 8.67975 127.351 9.93559 125.197L10.1186 124.875C10.5492 124.153 11.0013 123.409 11.561 122.532L11.7871 122.166C18.9548 111.032 28.408 101.659 39.4772 94.7122C50.5464 87.7649 62.961 83.4126 75.842 81.9635C88.723 80.5143 101.755 82.0037 114.016 86.3262C126.277 90.6487 137.467 97.6987 146.793 106.977L147.202 107.41C151.869 112.165 155.994 117.454 159.495 123.176L159.603 123.354C163.205 129.276 166.127 135.61 168.311 142.229C168.444 142.752 168.53 143.288 168.57 143.827C168.564 143.946 168.564 144.064 168.57 144.183C168.728 145.16 168.732 146.158 168.58 147.136H168.591Z" fill="#003726"/>
        <path d="M148.795 137.177C142.876 126.097 134.365 116.72 124.037 109.897C112.335 102.2 98.7485 98.102 84.8693 98.0843C70.9902 98.0666 57.3937 102.129 45.6731 109.797C35.2016 116.679 26.5884 126.182 20.6353 137.421C21.2225 137.112 21.8874 136.996 22.5405 137.088L22.9388 137.143C29.1391 125.874 38.1236 116.5 48.9779 109.976C59.8321 103.452 72.1684 100.011 84.7311 100.003C97.2937 99.995 109.634 103.421 120.496 109.931C131.358 116.441 140.354 125.804 146.567 137.066C147.308 136.925 148.071 136.963 148.795 137.177Z" fill="#003726"/>
        <path d="M161.971 137.166C155.217 121.886 144.345 108.933 130.652 99.8498C116.959 90.7667 101.022 85.9373 84.7419 85.9373C68.4616 85.9373 52.5248 90.7667 38.8317 99.8498C25.1386 108.933 14.267 121.886 7.51318 137.166C8.26918 136.913 9.07886 136.886 9.84904 137.088C16.5514 122.432 27.1581 110.047 40.4304 101.377C53.7026 92.707 69.0925 88.1112 84.8024 88.1264C100.512 88.1415 115.894 92.7669 129.15 101.462C142.407 110.158 152.991 122.564 159.667 137.232C160.412 136.977 161.213 136.954 161.971 137.166Z" fill="#003726"/>
        <path d="M80.0755 104.179L79.2144 104.323L85.673 130.371L91.9055 105.034L92.0454 104.423C92.0454 104.423 91.5718 104.323 90.8291 104.234C87.2486 104.001 83.658 103.982 80.0755 104.179ZM85.6837 124.009L85.3823 122.821H85.9744L85.6837 124.009ZM86.308 121.444H85.0486L84.7042 120.067H86.6525L86.308 121.444ZM86.9862 118.69H84.3705L84.026 117.325H87.3307L86.9862 118.69ZM87.6644 115.948H83.6923L83.3479 114.571H87.9981L87.6644 115.948ZM88.3425 113.194H82.9603L82.6266 111.818H88.6331L88.3425 113.194ZM89.0207 110.452H82.3252L81.9916 109.075H89.3544L89.0207 110.452ZM89.688 107.709H81.6471L81.5072 107.154C84.2781 106.977 87.0571 106.977 89.828 107.154L89.688 107.709Z" fill="#003726"/>
        <path d="M130.183 55.3926L130.463 55.7701C130.551 55.8869 130.664 55.9816 130.792 56.047C130.921 56.1124 131.063 56.1468 131.206 56.1476C131.405 56.1519 131.599 56.0852 131.755 55.9588C131.856 55.8882 131.94 55.7962 132.003 55.6889C132.067 55.5817 132.107 55.4617 132.121 55.3371C132.14 55.2128 132.134 55.0859 132.104 54.9638C132.075 54.8418 132.022 54.7271 131.949 54.6265L131.658 54.2379C131.584 54.138 131.491 54.0542 131.386 53.9912C131.28 53.9282 131.163 53.8873 131.042 53.8708C130.922 53.8543 130.799 53.8626 130.681 53.8951C130.563 53.9276 130.452 53.9837 130.356 54.0602C130.259 54.1368 130.177 54.2323 130.116 54.3412C130.055 54.4501 130.016 54.5704 130 54.6952C129.984 54.8199 129.992 54.9467 130.023 55.0683C130.055 55.1898 130.109 55.3038 130.183 55.4037V55.3926Z" fill="#003726"/>
        <path d="M133.726 60.8774L133.952 61.2993C134.036 61.4418 134.155 61.5594 134.296 61.6411C134.438 61.7227 134.597 61.7656 134.759 61.7656C134.921 61.7645 135.08 61.7226 135.222 61.6435C135.434 61.512 135.588 61.3011 135.652 61.055C135.685 60.9343 135.693 60.808 135.676 60.6839C135.659 60.5598 135.618 60.4405 135.556 60.3333L135.319 59.9114C135.187 59.7098 134.986 59.5676 134.756 59.5137C134.526 59.4599 134.285 59.4985 134.082 59.6217C133.879 59.7449 133.729 59.9434 133.662 60.1767C133.596 60.4101 133.619 60.6607 133.726 60.8774Z" fill="#003726"/>
        <path d="M140.475 75.0446C140.356 75.0716 140.243 75.1241 140.145 75.1987C140.047 75.2733 139.965 75.3683 139.904 75.4776C139.84 75.584 139.796 75.7025 139.775 75.8263C139.755 75.9502 139.759 76.0769 139.786 76.1993L139.894 76.6546C139.942 76.8651 140.057 77.0528 140.221 77.1877C140.385 77.3226 140.588 77.3968 140.798 77.3985H141.013C141.243 77.3378 141.442 77.1894 141.57 76.9834C141.698 76.7773 141.745 76.5288 141.702 76.2882L141.594 75.8107C141.53 75.5674 141.381 75.3576 141.175 75.2223C141.076 75.1442 140.963 75.0881 140.843 75.0575C140.722 75.0269 140.597 75.0225 140.475 75.0446Z" fill="#003726"/>
        <path d="M136.685 66.0513C136.594 66.2866 136.594 66.5489 136.685 66.7841L136.868 67.2171C136.942 67.3869 137.061 67.5314 137.212 67.6337C137.363 67.7359 137.539 67.7917 137.719 67.7945C137.848 67.7921 137.976 67.7658 138.096 67.7168C138.32 67.6123 138.495 67.421 138.584 67.1841C138.673 66.9472 138.667 66.6839 138.569 66.451L138.386 66.0069C138.285 65.7755 138.099 65.5945 137.87 65.503C137.64 65.4116 137.385 65.4171 137.159 65.5184C137.049 65.5691 136.95 65.6426 136.869 65.7343C136.787 65.8259 136.725 65.9338 136.685 66.0513Z" fill="#003726"/>
        <path d="M135.318 63.7864L135.523 64.2083C135.599 64.368 135.717 64.5025 135.864 64.5967C136.01 64.6909 136.179 64.7409 136.352 64.7412C136.499 64.7438 136.644 64.7055 136.771 64.6302C136.882 64.5758 136.98 64.4983 137.059 64.4027C137.139 64.3072 137.199 64.1956 137.234 64.0751C137.326 63.8438 137.326 63.5847 137.234 63.3534L137.019 62.9204C136.966 62.8067 136.891 62.7056 136.799 62.6234C136.706 62.5412 136.598 62.4798 136.481 62.4429C136.246 62.3666 135.991 62.3864 135.77 62.4984C135.657 62.5509 135.556 62.6263 135.472 62.7199C135.388 62.8136 135.323 62.9238 135.28 63.0439C135.238 63.164 135.22 63.2916 135.226 63.4191C135.233 63.5466 135.264 63.6715 135.318 63.7864Z" fill="#003726"/>
        <path d="M132.057 58.0795L132.305 58.4681C132.388 58.6018 132.503 58.7115 132.638 58.7872C132.774 58.8629 132.926 58.9021 133.08 58.9011C133.263 58.9007 133.442 58.8468 133.596 58.7457C133.699 58.6762 133.787 58.5865 133.855 58.4817C133.924 58.3769 133.971 58.2591 133.996 58.1352C134.02 58.0112 134.019 57.8836 133.995 57.7597C133.971 57.6358 133.923 57.5181 133.855 57.4133L133.596 57.0136C133.459 56.8023 133.246 56.6549 133.004 56.6028C132.762 56.5596 132.512 56.611 132.305 56.7472C132.102 56.8898 131.963 57.1094 131.917 57.3578C131.891 57.4816 131.89 57.6095 131.914 57.7337C131.938 57.8579 131.987 57.9756 132.057 58.0795Z" fill="#003726"/>
        <path d="M141.196 78.3312C140.956 78.3798 140.744 78.523 140.605 78.7305C140.467 78.9379 140.412 79.1931 140.453 79.4415L140.539 79.9078C140.575 80.1314 140.687 80.3345 140.854 80.481C141.022 80.6274 141.234 80.7076 141.454 80.7072H141.605C141.726 80.6859 141.842 80.6395 141.946 80.5708C142.049 80.5021 142.138 80.4126 142.208 80.3075C142.278 80.2055 142.327 80.0901 142.353 79.968C142.379 79.8459 142.381 79.7198 142.358 79.5969L142.283 79.1084C142.236 78.8582 142.096 78.6368 141.893 78.4916C141.69 78.3464 141.439 78.2889 141.196 78.3312Z" fill="#003726"/>
        <path d="M141.993 95.3631C141.869 95.3411 141.741 95.3455 141.619 95.376C141.497 95.4065 141.381 95.4624 141.281 95.5403C141.18 95.6183 141.096 95.7166 141.033 95.8293C140.97 95.9421 140.931 96.0668 140.916 96.1959L140.862 96.6733C140.83 96.9258 140.896 97.1812 141.045 97.3839C141.202 97.5808 141.425 97.708 141.67 97.7392H141.777C142.005 97.7384 142.224 97.6523 142.394 97.497C142.565 97.3418 142.674 97.1279 142.703 96.8953L142.757 96.4179C142.785 96.1745 142.722 95.9293 142.579 95.7329C142.437 95.5366 142.227 95.4042 141.993 95.3631Z" fill="#003726"/>
        <path d="M137.913 69.8265L138.063 70.2706C138.129 70.4551 138.248 70.6145 138.403 70.7275C138.559 70.8406 138.745 70.902 138.935 70.9035C139.041 70.9022 139.147 70.8835 139.247 70.848C139.48 70.7601 139.67 70.5804 139.775 70.3483C139.822 70.2344 139.847 70.1116 139.847 69.9875C139.847 69.8634 139.822 69.7406 139.775 69.6267L139.613 69.1603C139.524 68.9248 139.35 68.7341 139.127 68.6285C138.904 68.5229 138.65 68.5106 138.419 68.5941C138.194 68.6901 138.016 68.8731 137.921 69.1036C137.827 69.3341 137.823 69.5937 137.913 69.8265Z" fill="#003726"/>
        <path d="M60.3767 39.6597C60.5266 39.6571 60.6739 39.6192 60.8073 39.5487L61.2163 39.3266C61.3238 39.2699 61.4192 39.1915 61.4968 39.0962C61.5745 39.0008 61.6328 38.8904 61.6684 38.7715C61.7058 38.6511 61.7193 38.5242 61.7082 38.3983C61.6971 38.2724 61.6616 38.1501 61.6038 38.0387C61.5488 37.9278 61.4729 37.8294 61.3805 37.7493C61.288 37.6692 61.181 37.6091 61.0656 37.5723C60.8307 37.4959 60.5763 37.5158 60.3552 37.6279L59.9354 37.861C59.7198 37.9829 59.5579 38.1857 59.4833 38.4273C59.4153 38.6687 59.4424 38.928 59.5586 39.1489C59.636 39.3036 59.7534 39.4332 59.8978 39.5233C60.0422 39.6135 60.2079 39.6607 60.3767 39.6597Z" fill="#003726"/>
        <path d="M139.011 72.269C138.895 72.49 138.867 72.7493 138.935 72.9907L139.075 73.4459C139.131 73.6434 139.247 73.8171 139.406 73.9411C139.565 74.0652 139.759 74.1329 139.958 74.1343C140.047 74.1503 140.138 74.1503 140.227 74.1343C140.344 74.1002 140.452 74.0423 140.546 73.9641C140.641 73.8859 140.719 73.789 140.776 73.6791C140.892 73.454 140.919 73.1914 140.851 72.9463L140.712 72.48C140.637 72.2384 140.475 72.0357 140.259 71.9137C140.152 71.8535 140.033 71.8166 139.911 71.8051C139.789 71.7936 139.666 71.8079 139.549 71.8471C139.436 71.8751 139.33 71.9271 139.237 71.9997C139.144 72.0724 139.067 72.1641 139.011 72.269Z" fill="#003726"/>
        <path d="M118.719 43.7901L119.096 44.0787C119.255 44.1999 119.447 44.2659 119.645 44.2675C119.79 44.2671 119.932 44.2317 120.061 44.1642C120.19 44.0967 120.302 43.999 120.388 43.8789C120.463 43.7796 120.518 43.6649 120.547 43.5425C120.577 43.4201 120.581 43.2926 120.56 43.1683C120.544 43.0439 120.504 42.924 120.443 42.8154C120.383 42.7068 120.301 42.6117 120.205 42.5354L119.817 42.2468C119.72 42.1593 119.606 42.0937 119.483 42.0541C119.36 42.0146 119.23 42.002 119.102 42.0172C118.974 42.0324 118.851 42.0751 118.74 42.1424C118.628 42.2097 118.532 42.3003 118.457 42.4082C118.381 42.5162 118.329 42.6391 118.302 42.7693C118.276 42.8994 118.276 43.0338 118.303 43.1639C118.329 43.294 118.382 43.4169 118.458 43.5247C118.533 43.6326 118.63 43.7229 118.741 43.7901H118.719Z" fill="#003726"/>
        <path d="M141.745 81.6622C141.625 81.6768 141.509 81.7156 141.404 81.7766C141.298 81.8376 141.206 81.9195 141.131 82.0175C141.053 82.1158 140.996 82.2297 140.962 82.3519C140.929 82.4742 140.921 82.6023 140.937 82.7281L140.991 83.2055C141.018 83.4372 141.125 83.6509 141.294 83.8063C141.462 83.9618 141.68 84.0482 141.906 84.0494H142.014C142.136 84.0375 142.254 83.9999 142.362 83.9388C142.469 83.8776 142.563 83.7943 142.638 83.6941C142.714 83.5968 142.771 83.4848 142.804 83.3646C142.837 83.2445 142.847 83.1186 142.832 82.9946L142.778 82.5172C142.75 82.264 142.626 82.0326 142.434 81.8732C142.339 81.7919 142.229 81.7313 142.11 81.695C141.992 81.6588 141.867 81.6476 141.745 81.6622Z" fill="#003726"/>
        <path d="M128.461 53.172C128.547 53.2814 128.655 53.3693 128.778 53.4289C128.901 53.4885 129.036 53.5184 129.172 53.5162C129.348 53.516 129.52 53.4641 129.668 53.3667C129.816 53.2693 129.934 53.1304 130.009 52.9662C130.084 52.802 130.111 52.6193 130.089 52.4394C130.066 52.2596 129.995 52.0901 129.882 51.9507L129.57 51.5732C129.491 51.4767 129.394 51.3975 129.285 51.3403C129.176 51.2831 129.057 51.249 128.935 51.2401C128.692 51.2246 128.452 51.3076 128.267 51.4714C128.082 51.6352 127.967 51.8669 127.945 52.1173C127.933 52.2428 127.946 52.3695 127.983 52.4898C128.02 52.61 128.08 52.7212 128.16 52.8167L128.461 53.172Z" fill="#003726"/>
        <path d="M142.089 85.0153C141.845 85.0339 141.618 85.1493 141.454 85.3373C141.373 85.4326 141.312 85.5435 141.273 85.6636C141.234 85.7837 141.219 85.9105 141.228 86.0368V86.5142C141.247 86.7655 141.36 86.9994 141.543 87.167C141.725 87.3346 141.964 87.4229 142.208 87.4135C142.456 87.3977 142.688 87.2821 142.854 87.0915C142.935 86.9986 142.996 86.8896 143.035 86.7713C143.074 86.653 143.089 86.5277 143.08 86.4031V85.9146C143.07 85.7846 143.036 85.6578 142.978 85.5416C142.921 85.4254 142.842 85.322 142.746 85.2374C142.564 85.0776 142.328 84.9979 142.089 85.0153Z" fill="#003726"/>
        <path d="M142.218 92.0323C141.976 92.0285 141.742 92.1191 141.562 92.2859C141.383 92.4527 141.271 92.6834 141.249 92.9317V93.398C141.24 93.5243 141.256 93.6512 141.295 93.7712C141.335 93.8912 141.397 94.002 141.478 94.0971C141.559 94.1921 141.658 94.2696 141.768 94.3249C141.878 94.3803 141.998 94.4124 142.121 94.4195H142.175C142.41 94.4201 142.636 94.3287 142.808 94.1637C142.98 93.9988 143.084 93.7728 143.101 93.5312V93.0427C143.108 92.9158 143.09 92.7887 143.05 92.6686C143.009 92.5486 142.946 92.438 142.864 92.3432C142.783 92.2485 142.683 92.172 142.572 92.1185C142.461 92.065 142.341 92.0357 142.218 92.0323Z" fill="#003726"/>
        <path d="M57.5355 41.3252C57.7072 41.3273 57.8757 41.2771 58.0199 41.1808L58.3751 40.9588C58.4907 40.901 58.5934 40.8191 58.6767 40.7182C58.7599 40.6173 58.8219 40.4996 58.8587 40.3726C58.8954 40.2457 58.9062 40.1122 58.8902 39.9807C58.8742 39.8492 58.8319 39.7226 58.7659 39.6089C58.6999 39.4952 58.6117 39.397 58.5069 39.3204C58.4021 39.2437 58.283 39.1904 58.1571 39.1639C58.0313 39.1373 57.9014 39.1381 57.7759 39.1661C57.6503 39.1942 57.5318 39.2488 57.4278 39.3267L57.0188 39.5709C56.9125 39.6355 56.8203 39.7222 56.748 39.8253C56.6757 39.9285 56.625 40.046 56.599 40.1705C56.5419 40.4163 56.5806 40.6754 56.7066 40.8922C56.7955 41.0333 56.919 41.1477 57.0646 41.2237C57.2101 41.2997 57.3726 41.3348 57.5355 41.3252Z" fill="#003726"/>
        <path d="M142.262 88.3906C142.016 88.3906 141.781 88.4912 141.607 88.6703C141.434 88.8494 141.336 89.0922 141.336 89.3455V90.0561C141.335 90.1819 141.358 90.3067 141.404 90.4232C141.45 90.5397 141.518 90.6456 141.604 90.7346C141.69 90.8235 141.793 90.8938 141.906 90.9413C142.019 90.9887 142.14 91.0124 142.262 91.0109C142.506 91.008 142.74 90.9065 142.913 90.7281C143.086 90.5496 143.185 90.3084 143.187 90.0561V89.3566C143.187 89.1023 143.09 88.8583 142.917 88.6774C142.744 88.4966 142.508 88.3935 142.262 88.3906Z" fill="#003726"/>
        <path d="M110.442 38.6605L110.862 38.8715C110.97 38.9282 111.089 38.962 111.21 38.9709C111.332 38.9798 111.454 38.9636 111.569 38.9233C111.684 38.8829 111.791 38.8193 111.882 38.736C111.973 38.6528 112.047 38.5516 112.1 38.4385C112.209 38.213 112.227 37.9523 112.15 37.7132C112.073 37.474 111.908 37.2758 111.691 37.1616L111.26 36.9396C111.032 36.8457 110.778 36.8457 110.55 36.9396C110.318 37.0251 110.129 37.2012 110.022 37.4297C109.915 37.6582 109.9 37.9208 109.979 38.1609C110.065 38.3831 110.231 38.5622 110.442 38.6605Z" fill="#003726"/>
        <path d="M124.037 48.3309C124.209 48.4994 124.435 48.5946 124.672 48.5974C124.796 48.596 124.918 48.5692 125.032 48.5186C125.146 48.468 125.249 48.3947 125.335 48.3027C125.421 48.2108 125.489 48.1022 125.534 47.9832C125.579 47.8641 125.601 47.737 125.598 47.6093C125.59 47.3562 125.486 47.1166 125.307 46.9431L124.963 46.61C124.788 46.4323 124.552 46.3328 124.306 46.3328C124.061 46.3328 123.825 46.4323 123.65 46.61C123.567 46.7014 123.502 46.8089 123.46 46.9262C123.418 47.0435 123.399 47.1683 123.404 47.2933C123.409 47.4183 123.438 47.5411 123.489 47.6544C123.541 47.7677 123.614 47.8694 123.703 47.9534L124.037 48.3309Z" fill="#003726"/>
        <path d="M126.32 50.685C126.406 50.7779 126.509 50.8515 126.624 50.9012C126.739 50.9508 126.863 50.9755 126.987 50.9736C127.168 50.9746 127.346 50.9207 127.497 50.8186C127.649 50.7165 127.769 50.5707 127.841 50.3993C127.913 50.2279 127.935 50.0384 127.904 49.8543C127.872 49.6703 127.789 49.4997 127.665 49.3637L127.331 49.0084C127.203 48.8773 127.04 48.7875 126.862 48.75C126.685 48.7124 126.501 48.7287 126.332 48.7968C126.164 48.865 126.018 48.982 125.912 49.1339C125.807 49.2857 125.747 49.4658 125.738 49.6524C125.735 49.9077 125.828 50.1543 125.997 50.3408L126.32 50.685Z" fill="#003726"/>
        <path d="M116.061 41.9136L116.449 42.1801C116.6 42.2798 116.775 42.3336 116.955 42.3356C117.11 42.3335 117.262 42.2931 117.399 42.2177C117.535 42.1424 117.652 42.0343 117.74 41.9025C117.868 41.6864 117.914 41.4296 117.869 41.1808C117.844 41.056 117.795 40.9377 117.725 40.8328C117.655 40.728 117.565 40.6386 117.46 40.5702L117.062 40.3037C116.853 40.1704 116.602 40.127 116.362 40.1831C116.123 40.2392 115.914 40.3902 115.781 40.6035C115.652 40.8148 115.61 41.0704 115.663 41.3141C115.687 41.4364 115.735 41.5525 115.803 41.6555C115.871 41.7585 115.959 41.8463 116.061 41.9136Z" fill="#003726"/>
        <path d="M113.273 40.2038L113.671 40.437C113.81 40.5247 113.971 40.5708 114.134 40.5702C114.297 40.5681 114.456 40.5219 114.596 40.4361C114.736 40.3504 114.851 40.2281 114.93 40.0817C114.993 39.9745 115.034 39.8552 115.051 39.7311C115.068 39.607 115.06 39.4807 115.027 39.36C114.997 39.2389 114.943 39.1253 114.869 39.0261C114.795 38.927 114.702 38.8441 114.597 38.7826L114.177 38.5384C113.96 38.4152 113.706 38.3834 113.467 38.4495C113.29 38.5014 113.133 38.606 113.014 38.7503C112.896 38.8945 112.821 39.0719 112.8 39.2598C112.78 39.4477 112.813 39.6377 112.898 39.8058C112.982 39.9739 113.112 40.1124 113.273 40.2038Z" fill="#003726"/>
        <path d="M121.271 45.8329L121.626 46.1327C121.792 46.2767 122.002 46.3554 122.218 46.3548C122.354 46.357 122.489 46.3271 122.612 46.2675C122.735 46.2078 122.843 46.12 122.929 46.0106C123.008 45.9171 123.068 45.8078 123.105 45.6894C123.142 45.571 123.156 45.446 123.144 45.3222C123.122 45.0691 123.006 44.8346 122.821 44.6671L122.444 44.3563C122.352 44.2733 122.244 44.2108 122.128 44.1726C122.011 44.1344 121.888 44.1213 121.766 44.1342C121.521 44.1654 121.298 44.2926 121.142 44.4895C120.988 44.6866 120.915 44.9373 120.937 45.189C120.961 45.4408 121.081 45.6724 121.271 45.8329Z" fill="#003726"/>
        <path d="M128.892 125.907C128.769 125.914 128.649 125.947 128.54 126.004C128.431 126.061 128.334 126.142 128.257 126.241L127.956 126.596C127.796 126.789 127.716 127.04 127.734 127.294C127.752 127.547 127.867 127.783 128.052 127.95C128.225 128.098 128.442 128.181 128.666 128.184C128.799 128.182 128.93 128.152 129.051 128.095C129.171 128.037 129.279 127.954 129.366 127.85L129.678 127.473C129.834 127.281 129.912 127.034 129.893 126.785C129.871 126.532 129.756 126.297 129.57 126.129C129.477 126.048 129.369 125.987 129.253 125.949C129.136 125.91 129.014 125.896 128.892 125.907Z" fill="#003726"/>
        <path d="M58.149 138.054L57.7508 137.799C57.5409 137.668 57.2892 137.628 57.0511 137.689C56.813 137.749 56.6078 137.904 56.4806 138.121C56.4153 138.227 56.3721 138.346 56.3535 138.47C56.335 138.594 56.3416 138.721 56.3729 138.842C56.4291 139.086 56.576 139.298 56.782 139.431L57.191 139.686C57.3381 139.774 57.5053 139.82 57.6754 139.819C57.8338 139.822 57.99 139.782 58.128 139.702C58.2661 139.622 58.3811 139.505 58.4612 139.364C58.5254 139.257 58.5683 139.139 58.5874 139.014C58.6065 138.89 58.6013 138.763 58.5723 138.641C58.5432 138.519 58.4908 138.405 58.4181 138.304C58.3454 138.203 58.2539 138.118 58.149 138.054Z" fill="#003726"/>
        <path d="M31.4639 79.8192C31.3415 79.7986 31.2164 79.8034 31.0959 79.8331C30.9753 79.8629 30.8616 79.917 30.7615 79.9924C30.6614 80.0678 30.5767 80.163 30.5125 80.2723C30.4483 80.3817 30.4058 80.5032 30.3875 80.6297L30.3229 81.1071C30.3015 81.2335 30.305 81.363 30.3332 81.488C30.3614 81.613 30.4138 81.7308 30.4871 81.8344C30.5605 81.9381 30.6533 82.0254 30.7601 82.0912C30.8669 82.157 30.9854 82.1999 31.1087 82.2174H31.2379C31.4591 82.2174 31.673 82.1356 31.8409 81.9869C32.0087 81.8382 32.1194 81.6324 32.1528 81.4069L32.2174 80.9294C32.2391 80.8055 32.2367 80.6783 32.2105 80.5552C32.1843 80.4322 32.1348 80.3157 32.0648 80.2125C31.9947 80.1093 31.9056 80.0214 31.8024 79.9539C31.6993 79.8864 31.5843 79.8406 31.4639 79.8192Z" fill="#003726"/>
        <path d="M60.9581 139.686L60.5491 139.464C60.4418 139.404 60.3239 139.366 60.2024 139.353C60.0808 139.34 59.958 139.352 59.8409 139.388C59.7238 139.424 59.6148 139.484 59.5202 139.563C59.4256 139.643 59.3472 139.741 59.2896 139.853C59.1775 140.079 59.1543 140.342 59.225 140.585C59.2599 140.706 59.3179 140.818 59.3956 140.916C59.4732 141.013 59.569 141.093 59.6772 141.152L60.097 141.374C60.2284 141.449 60.377 141.488 60.5275 141.485C60.6963 141.486 60.862 141.439 61.0064 141.348C61.1508 141.258 61.2682 141.129 61.3456 140.974C61.4037 140.865 61.4394 140.744 61.4505 140.62C61.4617 140.496 61.4479 140.371 61.4102 140.252C61.3355 140.011 61.1737 139.808 60.9581 139.686Z" fill="#003726"/>
        <path d="M63.8542 141.141L63.4344 140.952C63.3244 140.898 63.205 140.867 63.0833 140.862C62.9617 140.856 62.8401 140.876 62.7258 140.919C62.6115 140.962 62.5068 141.029 62.4177 141.115C62.3287 141.2 62.2572 141.304 62.2073 141.418C62.1596 141.532 62.135 141.655 62.135 141.779C62.135 141.903 62.1596 142.026 62.2073 142.14C62.2925 142.38 62.4667 142.576 62.6917 142.684L63.1223 142.895C63.2429 142.942 63.3701 142.968 63.499 142.973C63.714 142.978 63.9241 142.906 64.0932 142.769C64.2624 142.632 64.3799 142.438 64.4258 142.222C64.4716 142.005 64.4429 141.779 64.3445 141.581C64.2461 141.384 64.0842 141.228 63.8865 141.141H63.8542Z" fill="#003726"/>
        <path d="M52.8421 134.29L52.4761 133.99C52.2845 133.834 52.0407 133.762 51.7979 133.79C51.6152 133.811 51.4425 133.887 51.3019 134.009C51.1613 134.131 51.059 134.294 51.0082 134.476C50.9574 134.658 50.9604 134.852 51.0167 135.032C51.0729 135.213 51.18 135.372 51.3243 135.489L51.7011 135.8C51.896 135.954 52.1417 136.023 52.3853 135.992C52.6289 135.96 52.8509 135.832 53.0035 135.634C53.1527 135.432 53.2193 135.179 53.1891 134.928C53.1589 134.677 53.0343 134.448 52.8421 134.29Z" fill="#003726"/>
        <path d="M50.0108 131.858C49.9207 131.774 49.8154 131.71 49.7009 131.668C49.5864 131.626 49.465 131.609 49.3437 131.616C49.2225 131.623 49.1039 131.655 48.9948 131.71C48.8857 131.765 48.7883 131.842 48.7083 131.936C48.5444 132.125 48.4593 132.374 48.4713 132.627C48.4834 132.881 48.5917 133.119 48.7729 133.291L49.1281 133.613C49.2983 133.765 49.5164 133.848 49.7416 133.846C49.8693 133.848 49.996 133.822 50.1135 133.771C50.231 133.719 50.3367 133.643 50.4239 133.547C50.5111 133.451 50.5778 133.337 50.6198 133.212C50.6617 133.088 50.6779 132.956 50.6674 132.824C50.6515 132.572 50.5393 132.336 50.3552 132.169L50.0108 131.858Z" fill="#003726"/>
        <path d="M45.4581 127.162C45.293 126.974 45.0627 126.86 44.8169 126.845C44.5712 126.831 44.3297 126.917 44.1449 127.084C43.9627 127.253 43.8508 127.488 43.8327 127.739C43.8183 127.99 43.8994 128.237 44.0587 128.428L44.3817 128.794C44.4685 128.894 44.5746 128.975 44.6932 129.03C44.8118 129.086 44.9404 129.115 45.0706 129.116C45.3004 129.115 45.5219 129.028 45.6949 128.872C45.876 128.7 45.9843 128.462 45.9964 128.208C46.0085 127.955 45.9234 127.707 45.7595 127.517L45.4581 127.162Z" fill="#003726"/>
        <path d="M47.6646 129.583C47.488 129.417 47.2565 129.329 47.0182 129.335C46.7799 129.342 46.5533 129.443 46.3854 129.617C46.2175 129.792 46.1214 130.027 46.1171 130.272C46.1128 130.518 46.2005 130.756 46.3621 130.937L46.6958 131.27C46.8676 131.446 47.0994 131.546 47.3416 131.548C47.5906 131.548 47.83 131.449 48.009 131.27C48.0944 131.181 48.1613 131.075 48.2058 130.959C48.2502 130.842 48.2711 130.718 48.2674 130.593C48.2679 130.467 48.2444 130.343 48.1982 130.227C48.1521 130.11 48.0841 130.005 47.9983 129.916L47.6646 129.583Z" fill="#003726"/>
        <path d="M55.4472 136.244L55.0597 135.978C54.9595 135.906 54.8464 135.855 54.7271 135.829C54.6078 135.802 54.4846 135.8 54.3646 135.823C54.2445 135.845 54.13 135.892 54.0276 135.961C53.9252 136.03 53.837 136.118 53.768 136.222C53.698 136.324 53.6486 136.44 53.6227 136.562C53.5968 136.684 53.595 136.81 53.6173 136.933C53.6381 137.056 53.6833 137.174 53.7499 137.279C53.8166 137.384 53.9033 137.474 54.0048 137.543L54.3923 137.821C54.547 137.932 54.7314 137.99 54.9197 137.987C55.0701 137.989 55.2184 137.952 55.3517 137.881C55.485 137.809 55.5991 137.705 55.684 137.577C55.7539 137.475 55.8024 137.359 55.8265 137.237C55.8506 137.114 55.8497 136.988 55.824 136.866C55.7814 136.616 55.6463 136.393 55.4472 136.244Z" fill="#003726"/>
        <path d="M126.75 128.406C126.505 128.413 126.272 128.521 126.104 128.705L125.781 129.038C125.609 129.219 125.512 129.462 125.512 129.716C125.512 129.969 125.609 130.212 125.781 130.393C125.866 130.481 125.966 130.551 126.077 130.599C126.188 130.646 126.307 130.671 126.427 130.671C126.677 130.666 126.916 130.562 127.094 130.382L127.417 130.027C127.59 129.846 127.686 129.603 127.686 129.349C127.686 129.096 127.59 128.853 127.417 128.672C127.238 128.496 126.998 128.4 126.75 128.406Z" fill="#003726"/>
        <path d="M111.314 140.363C111.204 140.314 111.084 140.289 110.964 140.289C110.844 140.289 110.725 140.314 110.614 140.363L110.195 140.574C110.083 140.626 109.984 140.702 109.902 140.795C109.821 140.889 109.759 140.999 109.721 141.118C109.63 141.354 109.63 141.616 109.721 141.851C109.797 142.013 109.916 142.15 110.065 142.244C110.214 142.339 110.386 142.387 110.56 142.384C110.699 142.385 110.836 142.351 110.959 142.284L111.379 142.073C111.489 142.02 111.587 141.944 111.669 141.85C111.75 141.757 111.812 141.648 111.852 141.529C111.943 141.294 111.943 141.032 111.852 140.796C111.734 140.586 111.541 140.431 111.314 140.363Z" fill="#003726"/>
        <path d="M116.201 137.143L115.813 137.399C115.709 137.464 115.618 137.551 115.548 137.654C115.477 137.757 115.429 137.875 115.404 137.998C115.383 138.134 115.39 138.273 115.425 138.406C115.46 138.539 115.523 138.663 115.609 138.768C115.695 138.874 115.802 138.959 115.923 139.017C116.043 139.076 116.175 139.107 116.309 139.109C116.487 139.113 116.663 139.062 116.815 138.964L117.202 138.698C117.307 138.633 117.397 138.546 117.468 138.442C117.538 138.339 117.587 138.222 117.611 138.098C117.638 137.975 117.64 137.848 117.618 137.724C117.596 137.6 117.55 137.482 117.482 137.377C117.341 137.172 117.128 137.033 116.888 136.989C116.648 136.945 116.401 137.001 116.201 137.143Z" fill="#003726"/>
        <path d="M108.397 141.773C108.169 141.679 107.914 141.679 107.686 141.773L107.267 141.951C107.038 142.049 106.856 142.237 106.761 142.473C106.67 142.708 106.67 142.97 106.761 143.206C106.832 143.38 106.952 143.529 107.105 143.633C107.259 143.738 107.438 143.794 107.622 143.794C107.743 143.793 107.863 143.77 107.977 143.727L108.418 143.539C108.588 143.467 108.733 143.344 108.835 143.187C108.937 143.03 108.991 142.845 108.991 142.656C108.991 142.467 108.937 142.282 108.835 142.125C108.733 141.968 108.588 141.845 108.418 141.773H108.397Z" fill="#003726"/>
        <path d="M114.156 138.765C113.921 138.698 113.669 138.73 113.456 138.853L113.047 139.087C112.835 139.212 112.68 139.419 112.613 139.661C112.547 139.904 112.575 140.164 112.692 140.386C112.77 140.537 112.887 140.663 113.029 140.751C113.171 140.839 113.334 140.885 113.499 140.885C113.658 140.884 113.813 140.842 113.952 140.763L114.361 140.519C114.521 140.427 114.651 140.287 114.734 140.118C114.818 139.95 114.851 139.759 114.829 139.571C114.807 139.383 114.731 139.206 114.611 139.062C114.492 138.919 114.333 138.815 114.156 138.765Z" fill="#003726"/>
        <path d="M118.849 135.256L118.483 135.534C118.323 135.651 118.204 135.818 118.142 136.01C118.081 136.202 118.08 136.41 118.139 136.602C118.199 136.795 118.317 136.963 118.476 137.082C118.634 137.202 118.825 137.266 119.021 137.266C119.215 137.27 119.404 137.207 119.56 137.088L119.947 136.799C120.121 136.643 120.231 136.426 120.258 136.189C120.284 135.953 120.224 135.716 120.09 135.523C119.955 135.33 119.755 135.196 119.53 135.146C119.305 135.097 119.07 135.136 118.871 135.256H118.849Z" fill="#003726"/>
        <path d="M123.811 131.037L123.477 131.348C123.296 131.52 123.187 131.76 123.176 132.014C123.168 132.139 123.185 132.265 123.225 132.383C123.266 132.502 123.33 132.61 123.413 132.702C123.5 132.802 123.606 132.881 123.725 132.934C123.843 132.988 123.972 133.015 124.102 133.013C124.331 133.012 124.553 132.925 124.726 132.769L125.07 132.436C125.243 132.255 125.339 132.012 125.339 131.759C125.339 131.505 125.243 131.262 125.07 131.081C124.905 130.911 124.683 130.812 124.449 130.804C124.215 130.796 123.987 130.879 123.811 131.037Z" fill="#003726"/>
        <path d="M121.389 133.224L121.034 133.524C120.938 133.602 120.859 133.699 120.802 133.81C120.744 133.921 120.71 134.043 120.7 134.168C120.686 134.292 120.696 134.418 120.729 134.538C120.763 134.658 120.819 134.77 120.894 134.867C120.982 134.977 121.092 135.066 121.217 135.127C121.341 135.189 121.477 135.221 121.615 135.223C121.827 135.222 122.031 135.148 122.197 135.012L122.573 134.701C122.754 134.528 122.872 134.297 122.907 134.046C122.918 133.92 122.904 133.794 122.867 133.674C122.83 133.554 122.771 133.442 122.692 133.346C122.533 133.155 122.308 133.035 122.065 133.012C121.821 132.989 121.579 133.065 121.389 133.224Z" fill="#003726"/>
        <path d="M32.9497 73.2684C32.8323 73.2331 32.7093 73.2225 32.5879 73.237C32.4666 73.2516 32.3492 73.2911 32.2429 73.3532C32.1365 73.4153 32.0433 73.4987 31.9687 73.5986C31.8941 73.6984 31.8397 73.8127 31.8086 73.9346L31.6795 74.412C31.6171 74.6564 31.6511 74.9164 31.7742 75.1349C31.8973 75.3534 32.0993 75.5127 32.3361 75.5778C32.4147 75.5887 32.4943 75.5887 32.5729 75.5778C32.7769 75.5775 32.9751 75.5077 33.1367 75.3792C33.2983 75.2507 33.4142 75.0707 33.4663 74.8672L33.5955 74.412C33.659 74.1691 33.6281 73.9101 33.5094 73.6903C33.3812 73.4818 33.1812 73.3311 32.9497 73.2684Z" fill="#003726"/>
        <path d="M42.433 52.7056L42.1423 53.0831C42.0645 53.1818 42.0064 53.2954 41.9713 53.4174C41.9363 53.5393 41.9248 53.6672 41.9378 53.7937C41.9519 53.9174 41.9896 54.0371 42.0487 54.1457C42.1078 54.2543 42.1872 54.3498 42.2823 54.4266C42.4456 54.5658 42.6516 54.6405 42.8635 54.6375C43.0018 54.6377 43.1384 54.6058 43.2632 54.5443C43.388 54.4828 43.4979 54.3933 43.5847 54.2822L43.8754 53.9158C44.031 53.7185 44.1042 53.4656 44.079 53.2126C44.0537 52.9596 43.9321 52.7273 43.7408 52.5668C43.5495 52.4064 43.3043 52.3308 43.059 52.3568C42.8137 52.3829 42.5886 52.5083 42.433 52.7056Z" fill="#003726"/>
        <path d="M44.0579 51.1513C44.0663 51.3977 44.1679 51.6309 44.3409 51.8011C44.5139 51.9712 44.7446 52.0648 44.9836 52.0617C45.1129 52.0611 45.2408 52.0333 45.3593 51.9798C45.4778 51.9263 45.5844 51.8484 45.6725 51.7508L45.9739 51.3955C46.0582 51.304 46.1236 51.1959 46.1662 51.0775C46.2087 50.9592 46.2276 50.8332 46.2215 50.7071C46.2142 50.5186 46.1528 50.3366 46.0452 50.1841C45.9377 50.0315 45.7887 49.9152 45.6171 49.8498C45.4455 49.7845 45.259 49.7731 45.0811 49.817C44.9033 49.8609 44.742 49.9581 44.6176 50.0965L44.2947 50.4629C44.2118 50.5549 44.1481 50.6635 44.1074 50.7818C44.0666 50.9002 44.0498 51.0259 44.0579 51.1513Z" fill="#003726"/>
        <path d="M31.012 83.1499C30.8927 83.1365 30.7719 83.1482 30.6572 83.1845C30.5424 83.2208 30.4361 83.2808 30.3446 83.3609C30.1513 83.5245 30.0276 83.7596 30.0001 84.016V84.5045C29.9874 84.6293 29.999 84.7554 30.0341 84.8755C30.0692 84.9956 30.1272 85.1073 30.2046 85.204C30.3643 85.3926 30.5875 85.5116 30.829 85.5371H30.9151C31.1481 85.5379 31.3728 85.448 31.5444 85.2854C31.716 85.1228 31.8219 84.8995 31.8408 84.6599V84.1825C31.8591 83.9332 31.7829 83.6863 31.6283 83.4938C31.4737 83.3012 31.2528 83.178 31.012 83.1499Z" fill="#003726"/>
        <path d="M39.8278 57.9797C39.6188 57.8464 39.3674 57.8031 39.1278 57.8591C38.8882 57.9152 38.6795 58.0662 38.5468 58.2795L38.2885 58.6903C38.1602 58.9072 38.1199 59.1675 38.1763 59.4148C38.2327 59.6621 38.3813 59.8765 38.5899 60.0116C38.7361 60.1029 38.9033 60.1527 39.0743 60.1559C39.2326 60.1587 39.3888 60.118 39.5269 60.038C39.665 59.958 39.78 59.8416 39.8601 59.7007L40.1076 59.301C40.1736 59.1953 40.2186 59.0773 40.2402 58.9537C40.2618 58.83 40.2596 58.7032 40.2336 58.5804C40.2076 58.4577 40.1583 58.3415 40.0887 58.2384C40.0191 58.1353 39.9304 58.0474 39.8278 57.9797Z" fill="#003726"/>
        <path d="M49.6344 47.3097C49.8596 47.3116 50.0778 47.2287 50.248 47.0766L50.5924 46.7657C50.7316 46.6423 50.832 46.4791 50.881 46.2967C50.93 46.1144 50.9254 45.9211 50.8678 45.7415C50.8101 45.5618 50.702 45.4039 50.5571 45.2878C50.4123 45.1716 50.2372 45.1025 50.0542 45.0892C49.9333 45.0766 49.8111 45.0909 49.696 45.1311C49.5809 45.1713 49.4755 45.2365 49.3868 45.3223L49.0208 45.6332C48.8406 45.8079 48.7294 46.0452 48.7087 46.2994C48.6954 46.5503 48.7764 46.7968 48.9347 46.9877C49.0223 47.0898 49.1301 47.1714 49.2508 47.2269C49.3714 47.2824 49.5023 47.3107 49.6344 47.3097Z" fill="#003726"/>
        <path d="M47.2447 49.6191C47.4869 49.6173 47.7187 49.5176 47.8905 49.3415L48.2242 49.0084C48.3965 48.8277 48.493 48.5845 48.493 48.3311C48.493 48.0777 48.3965 47.8345 48.2242 47.6538C48.1382 47.5645 48.0359 47.4937 47.9232 47.4453C47.8105 47.397 47.6896 47.3721 47.5676 47.3721C47.4455 47.3721 47.3247 47.397 47.212 47.4453C47.0993 47.4937 46.997 47.5645 46.911 47.6538L46.5665 47.9869C46.4807 48.076 46.4127 48.1817 46.3665 48.2979C46.3203 48.4141 46.2969 48.5386 46.2974 48.6642C46.2923 48.7894 46.3127 48.9144 46.3572 49.031C46.4017 49.1477 46.4693 49.2534 46.5557 49.3415C46.6455 49.4347 46.7532 49.5075 46.8718 49.5553C46.9904 49.6031 47.1174 49.6248 47.2447 49.6191Z" fill="#003726"/>
        <path d="M52.1533 45.1557C52.3599 45.1574 52.561 45.087 52.7238 44.9558L53.0898 44.6672C53.2837 44.5113 53.4104 44.2831 53.4426 44.0318C53.4749 43.7805 53.41 43.5262 53.262 43.3237C53.1836 43.222 53.0863 43.1375 52.9759 43.075C52.8654 43.0126 52.7439 42.9735 52.6187 42.9601C52.4934 42.9466 52.3667 42.9591 52.2462 42.9968C52.1256 43.0344 52.0135 43.0965 51.9165 43.1794L51.5397 43.4792C51.4425 43.5564 51.3618 43.6534 51.3025 43.7641C51.2433 43.8749 51.2068 43.9971 51.1953 44.1231C51.1714 44.2602 51.1773 44.4011 51.2125 44.5356C51.2477 44.6701 51.3113 44.7949 51.3987 44.901C51.4862 45.0071 51.5954 45.092 51.7184 45.1495C51.8414 45.2069 51.9752 45.2356 52.1102 45.2334L52.1533 45.1557Z" fill="#003726"/>
        <path d="M38.1061 60.8553C37.8916 60.7365 37.6406 60.7086 37.4064 60.7775C37.2878 60.8097 37.177 60.8668 37.0807 60.9451C36.9844 61.0234 36.9047 61.1213 36.8467 61.2328L36.6206 61.6658C36.5618 61.7758 36.5245 61.8967 36.511 62.0216C36.4976 62.1466 36.5081 62.273 36.5421 62.3937C36.5761 62.5144 36.6329 62.6269 36.7092 62.7249C36.7855 62.823 36.8798 62.9045 36.9866 62.9648C37.1244 63.0338 37.2749 63.0716 37.428 63.0758C37.5954 63.0766 37.7599 63.0306 37.9039 62.9426C38.048 62.8546 38.1662 62.728 38.2461 62.5762L38.4721 62.1543C38.5854 61.9309 38.6105 61.671 38.5423 61.4289C38.4741 61.1868 38.3178 60.9813 38.1061 60.8553Z" fill="#003726"/>
        <path d="M41.7117 55.2149C41.5115 55.0659 41.2623 55.0044 41.0184 55.0439C40.7745 55.0834 40.5555 55.2207 40.4092 55.4259L40.1401 55.8367C40.0666 55.9369 40.0142 56.0519 39.9864 56.1743C39.9586 56.2967 39.9559 56.4238 39.9787 56.5473C40.0238 56.7931 40.1587 57.0116 40.3554 57.1579C40.5115 57.2757 40.7003 57.338 40.8936 57.3356C41.0413 57.3375 41.1872 57.3021 41.3186 57.2324C41.45 57.1627 41.5628 57.0609 41.6472 56.9359L41.9163 56.5473C41.9892 56.4467 42.0413 56.3317 42.069 56.2094C42.0968 56.0871 42.0998 55.9602 42.0777 55.8367C42.0608 55.7128 42.0196 55.5939 41.9567 55.487C41.8938 55.3801 41.8104 55.2875 41.7117 55.2149Z" fill="#003726"/>
        <path d="M30.6782 88.9458C30.9201 88.9458 31.1523 88.8483 31.3253 88.674C31.4983 88.4997 31.5983 88.2625 31.604 88.0131V87.5468C31.606 87.2938 31.5179 87.0488 31.3564 86.8584C31.2763 86.766 31.1785 86.6917 31.0692 86.6401C30.9599 86.5885 30.8415 86.5608 30.7213 86.5586C30.4849 86.5473 30.2534 86.6308 30.0754 86.7918C29.9764 86.8755 29.8963 86.9805 29.8405 87.0993C29.7847 87.2182 29.7547 87.3481 29.7525 87.4802V87.9687C29.7511 88.0956 29.7739 88.2215 29.8196 88.3392C29.8654 88.457 29.9332 88.5643 30.0192 88.655C30.1051 88.7457 30.2076 88.8181 30.3207 88.868C30.4337 88.9179 30.5553 88.9443 30.6782 88.9458Z" fill="#003726"/>
        <path d="M32.1099 76.4882C31.9924 76.46 31.8705 76.4573 31.7519 76.4802C31.6333 76.5032 31.5206 76.5512 31.421 76.6214C31.3159 76.6889 31.2254 76.7779 31.155 76.883C31.0847 76.988 31.036 77.1068 31.0119 77.2321L30.9151 77.6984C30.8916 77.8202 30.8916 77.9455 30.9151 78.0672C30.9387 78.189 30.9853 78.3048 31.0523 78.4079C31.1193 78.511 31.2054 78.5995 31.3056 78.6683C31.4058 78.7371 31.5182 78.7848 31.6363 78.8087H31.8193C32.0332 78.8064 32.2402 78.7294 32.4063 78.5903C32.5725 78.4512 32.688 78.2581 32.7342 78.0426L32.8203 77.5763C32.8591 77.3356 32.8071 77.0888 32.675 76.8865C32.5428 76.6841 32.3407 76.5416 32.1099 76.4882Z" fill="#003726"/>
        <path d="M30.7105 92.321C30.834 92.3199 30.956 92.2928 31.0689 92.2412C31.1819 92.1896 31.2834 92.1148 31.3672 92.0212C31.5307 91.8365 31.6193 91.594 31.6147 91.3439V90.8554C31.6006 90.6049 31.4925 90.37 31.3133 90.2003C31.1353 90.0286 30.9005 89.9333 30.6567 89.9338C30.4121 89.9425 30.1805 90.0496 30.0115 90.2323C29.8425 90.4149 29.7496 90.6585 29.7525 90.9109V91.3994C29.7552 91.5253 29.7824 91.6494 29.8323 91.7643C29.8822 91.8792 29.9539 91.9826 30.0432 92.0685C30.1325 92.1543 30.2375 92.2209 30.3521 92.2643C30.4667 92.3077 30.5886 92.3269 30.7105 92.321Z" fill="#003726"/>
        <path d="M36.5452 63.831C36.3223 63.7241 36.0675 63.7119 35.8359 63.7971C35.6042 63.8822 35.4144 64.0579 35.3073 64.2862L35.1136 64.7304C35.0103 64.9587 34.9988 65.2199 35.0815 65.457C35.1642 65.6941 35.3343 65.8879 35.5549 65.9961C35.6781 66.0616 35.8146 66.0958 35.9532 66.096C36.1281 66.0937 36.2987 66.0403 36.4454 65.9421C36.5921 65.8438 36.7088 65.7047 36.782 65.5409L36.9866 65.1079C37.0902 64.8779 37.1021 64.6151 37.0195 64.3762C36.9369 64.1373 36.7666 63.9415 36.5452 63.831Z" fill="#003726"/>
        <path d="M30.7856 93.3091C30.6639 93.3189 30.5452 93.3534 30.4365 93.4107C30.3278 93.468 30.2311 93.5469 30.1521 93.6429C30.073 93.7388 30.0132 93.85 29.976 93.9699C29.9387 94.0898 29.9249 94.2162 29.9352 94.3417V94.8191C29.9588 95.0567 30.0661 95.2772 30.2367 95.4389C30.4073 95.6005 30.6293 95.692 30.8609 95.6962H30.9363C31.058 95.6864 31.1766 95.6519 31.2853 95.5946C31.3941 95.5373 31.4907 95.4584 31.5698 95.3624C31.6488 95.2665 31.7087 95.1553 31.7459 95.0354C31.7831 94.9155 31.797 94.7891 31.7867 94.6636V94.1862C31.7786 94.0601 31.746 93.937 31.691 93.8242C31.6359 93.7113 31.5594 93.611 31.466 93.5292C31.3727 93.4474 31.2643 93.3857 31.1474 93.3479C31.0306 93.3101 30.9075 93.2969 30.7856 93.3091Z" fill="#003726"/>
        <path d="M35.1674 66.9062C35.0552 66.8575 34.9346 66.8324 34.8128 66.8323C34.6911 66.8322 34.5705 66.8572 34.4582 66.9058C34.346 66.9544 34.2442 67.0256 34.1589 67.1153C34.0737 67.205 34.0067 67.3113 33.9618 67.4281L33.7788 67.8833C33.6899 68.1191 33.6942 68.3814 33.7908 68.614C33.8874 68.8465 34.0686 69.0306 34.2955 69.1268C34.4055 69.1702 34.5222 69.1928 34.6399 69.1934C34.8255 69.1954 35.0072 69.1391 35.161 69.032C35.3148 68.9249 35.4334 68.7721 35.5011 68.5939L35.6733 68.1498C35.721 68.0358 35.7456 67.913 35.7456 67.7889C35.7456 67.6648 35.721 67.542 35.6733 67.4281C35.6278 67.3102 35.5595 67.2031 35.4725 67.1134C35.3855 67.0236 35.2817 66.9531 35.1674 66.9062Z" fill="#003726"/>
        <path d="M33.9615 70.0596C33.7303 69.9781 33.4771 69.9942 33.2573 70.1044C33.0375 70.2147 32.8689 70.4101 32.7882 70.6481L32.6375 71.1144C32.5986 71.2332 32.5828 71.3588 32.591 71.4839C32.5991 71.6091 32.6311 71.7313 32.6851 71.8437C32.7391 71.9561 32.814 72.0564 32.9056 72.1389C32.9971 72.2214 33.1036 72.2845 33.2188 72.3246C33.3156 72.3601 33.4174 72.3788 33.5202 72.3801C33.7137 72.3786 33.9018 72.3146 34.0582 72.1971C34.2146 72.0796 34.3314 71.9146 34.3921 71.7251L34.5428 71.2698C34.5817 71.151 34.5975 71.0255 34.5893 70.9003C34.5812 70.7752 34.5492 70.6529 34.4952 70.5405C34.4412 70.4282 34.3663 70.3278 34.2748 70.2453C34.1832 70.1628 34.0767 70.0997 33.9615 70.0596Z" fill="#003726"/>
        <path d="M54.7903 43.1794C54.9785 43.1804 55.1625 43.1224 55.3178 43.0129L55.6945 42.7464C55.796 42.6772 55.8828 42.5873 55.9494 42.4823C56.016 42.3773 56.0612 42.2593 56.0821 42.1357C56.1078 42.0137 56.1087 41.8876 56.0846 41.7652C56.0605 41.6429 56.012 41.5271 55.9421 41.4251C55.8042 41.2138 55.5918 41.0664 55.3501 41.0143C55.1076 40.9732 54.8589 41.0245 54.6504 41.1586L54.2629 41.4362C54.1622 41.5074 54.0762 41.5984 54.0098 41.704C53.9433 41.8096 53.8978 41.9278 53.8758 42.0516C53.8538 42.1754 53.8557 42.3025 53.8815 42.4256C53.9073 42.5486 53.9564 42.6652 54.0261 42.7686C54.1123 42.8952 54.2267 42.9986 54.3597 43.07C54.4927 43.1415 54.6404 43.179 54.7903 43.1794Z" fill="#003726"/>
    </g>
    <defs>
        <clipPath id="clip0_849_28861">
            <rect width="169" height="151" fill="white"/>
        </clipPath>
    </defs>
</svg>
