<svg width="187" height="44" viewBox="0 0 187 44" fill="none" xmlns="http://www.w3.org/2000/svg">
    <g clip-path="url(#clip0_866_28924)">
        <path d="M164 0H23C10.2975 0 0 9.84974 0 22C0 34.1503 10.2975 44 23 44H164C176.703 44 187 34.1503 187 22C187 9.84974 176.703 0 164 0Z" fill="white"/>
        <path d="M47.0673 25.6506L44.3326 22.877L34.2939 33.0884L47.0673 25.6506Z" fill="#004023"/>
        <path d="M47.0673 18.1008L34.2939 10.6628L44.3326 20.8743L47.0673 18.1008Z" fill="#004023"/>
        <path d="M51.0698 23.2776C51.8884 22.6181 51.8884 21.1319 51.0154 20.4725L48.3361 18.8997L45.3467 21.876L48.3361 24.8524L51.0698 23.2776Z" fill="#004023"/>
        <path d="M31.6721 33.684L43.3453 21.8712L31.6721 10.0633V10.0623C31.0815 10.3763 30.6855 10.9481 30.6855 11.6912V32.0551C30.6855 32.7982 31.0815 33.37 31.6721 33.684Z" fill="#004023"/>
        <g opacity="0.5">
            <path d="M74.3081 16.5844C73.4078 17.0534 72.4049 17.2879 71.2996 17.2879C70.0214 17.2879 68.9864 16.9073 68.1946 16.146C67.4028 15.3848 67.0068 14.3775 67.0068 13.1242C67.0068 11.8439 67.4389 10.7943 68.3031 9.97532C69.1713 9.15259 70.2726 8.74121 71.6071 8.74121C72.5677 8.74121 73.3756 8.87577 74.0308 9.1449V10.5578C73.3676 10.1349 72.5778 9.92347 71.6613 9.92347C70.7409 9.92347 69.9852 10.2137 69.3944 10.7943C68.8075 11.3748 68.5141 12.1264 68.5141 13.0492C68.5141 13.9988 68.7673 14.7466 69.2738 15.2925C69.7802 15.8347 70.4676 16.1057 71.3358 16.1057C71.9306 16.1057 72.4451 15.9961 72.8792 15.777V13.8104H71.0584V12.657H74.3081V16.5844Z" fill="#004023"/>
            <path d="M81.2414 14.5599H77.033C77.0491 15.1058 77.2239 15.5268 77.5576 15.8228C77.8952 16.1189 78.3574 16.2669 78.9443 16.2669C79.6035 16.2669 80.2084 16.0785 80.759 15.7017V16.7801C80.1963 17.1185 79.4527 17.2877 78.5283 17.2877C77.6199 17.2877 76.9064 17.0205 76.3879 16.4861C75.8734 15.9478 75.6162 15.1923 75.6162 14.2196C75.6162 13.3008 75.8995 12.553 76.4663 11.9763C77.037 11.3957 77.7445 11.1055 78.5885 11.1055C79.4326 11.1055 80.0858 11.365 80.548 11.884C81.0103 12.403 81.2414 13.1239 81.2414 14.0466V14.5599ZM79.8908 13.614C79.8868 13.1335 79.7683 12.7605 79.5351 12.4953C79.302 12.2261 78.9804 12.0915 78.5705 12.0915C78.1685 12.0915 77.8269 12.2319 77.5455 12.5126C77.2682 12.7933 77.0973 13.1604 77.033 13.614H79.8908Z" fill="#004023"/>
            <path d="M85.83 17.086C85.5566 17.2166 85.1969 17.2821 84.7507 17.2821C83.553 17.2821 82.9541 16.7323 82.9541 15.6326V12.2936H81.9231V11.244H82.9541V9.87716L84.3528 9.49658V11.244H85.83V12.2936H84.3528V15.2463C84.3528 15.5962 84.4191 15.846 84.5518 15.996C84.6844 16.1459 84.9055 16.2209 85.215 16.2209C85.4521 16.2209 85.6571 16.1556 85.83 16.0248V17.086Z" fill="#004023"/>
            <path d="M91.1417 10.0042C90.9125 10.0042 90.7156 9.93303 90.5508 9.79079C90.39 9.64856 90.3096 9.46784 90.3096 9.2487C90.3096 9.02956 90.39 8.84693 90.5508 8.70084C90.7156 8.55474 90.9125 8.48169 91.1417 8.48169C91.3788 8.48169 91.5798 8.55474 91.7446 8.70084C91.9094 8.84693 91.9918 9.02956 91.9918 9.2487C91.9918 9.45631 91.9094 9.63507 91.7446 9.78506C91.5798 9.93112 91.3788 10.0042 91.1417 10.0042ZM91.835 17.1495H90.4362V11.2441H91.835V17.1495Z" fill="#004023"/>
            <path d="M96.9235 17.086C96.6502 17.2166 96.2904 17.2821 95.8443 17.2821C94.6465 17.2821 94.0476 16.7323 94.0476 15.6326V12.2936H93.0166V11.244H94.0476V9.87716L95.4464 9.49658V11.244H96.9235V12.2936H95.4464V15.2463C95.4464 15.5962 95.5127 15.846 95.6453 15.996C95.778 16.1459 95.999 16.2209 96.3085 16.2209C96.5457 16.2209 96.7507 16.1556 96.9235 16.0248V17.086Z" fill="#004023"/>
            <path d="M104.267 17.2879C103.314 17.2879 102.553 17.013 101.982 16.4632C101.415 15.9096 101.132 15.1771 101.132 14.266C101.132 13.2741 101.427 12.4994 102.018 11.9419C102.613 11.3844 103.413 11.1057 104.418 11.1057C105.382 11.1057 106.134 11.3767 106.673 11.9189C107.211 12.4609 107.481 13.2125 107.481 14.1738C107.481 15.1156 107.189 15.8711 106.606 16.4401C106.028 17.0053 105.248 17.2879 104.267 17.2879ZM104.333 12.1725C103.787 12.1725 103.355 12.3552 103.037 12.7204C102.72 13.0857 102.561 13.5893 102.561 14.2314C102.561 14.8504 102.722 15.3387 103.043 15.6963C103.365 16.0499 103.795 16.2267 104.333 16.2267C104.884 16.2267 105.306 16.0519 105.599 15.702C105.897 15.3521 106.046 14.8542 106.046 14.2083C106.046 13.5586 105.897 13.0568 105.599 12.7031C105.306 12.3494 104.884 12.1725 104.333 12.1725Z" fill="#004023"/>
            <path d="M114.408 17.1495H113.009V13.8219C113.009 12.7185 112.601 12.1668 111.785 12.1668C111.359 12.1668 111.008 12.3206 110.73 12.6282C110.453 12.9319 110.314 13.3163 110.314 13.7816V17.1495H108.909V11.2441H110.314V12.2245H110.338C110.801 11.4786 111.468 11.1057 112.34 11.1057C113.011 11.1057 113.524 11.3152 113.877 11.7342C114.231 12.1495 114.408 12.7512 114.408 13.5394V17.1495Z" fill="#004023"/>
        </g>
        <path d="M77.4337 32.892C76.1732 33.5488 74.7693 33.877 73.2218 33.877C71.4323 33.877 69.9833 33.3442 68.8748 32.2784C67.7662 31.2127 67.2119 29.8024 67.2119 28.0478C67.2119 26.2554 67.8168 24.786 69.0267 23.6395C70.2422 22.4875 71.784 21.9116 73.6523 21.9116C74.9972 21.9116 76.1282 22.1001 77.0455 22.4768V24.4549C76.117 23.8628 75.0112 23.5668 73.7282 23.5668C72.4396 23.5668 71.3817 23.9732 70.5545 24.786C69.7329 25.5987 69.3221 26.651 69.3221 27.9428C69.3221 29.2722 69.6766 30.3192 70.3857 31.0835C71.0947 31.8424 72.0569 32.222 73.2724 32.222C74.1052 32.222 74.8255 32.0685 75.4333 31.7617V29.0085H72.8841V27.3938H77.4337V32.892Z" fill="#004023"/>
        <path d="M83.6546 33.877C82.321 33.877 81.2546 33.4922 80.4556 32.7225C79.6621 31.9474 79.2654 30.922 79.2654 29.6463C79.2654 28.2576 79.679 27.173 80.5062 26.3926C81.339 25.6121 82.4588 25.2219 83.8657 25.2219C85.2162 25.2219 86.2685 25.6014 87.0225 26.3603C87.7766 27.1193 88.1536 28.1716 88.1536 29.5172C88.1536 30.8359 87.7456 31.8936 86.9297 32.6902C86.1193 33.4814 85.0277 33.877 83.6546 33.877ZM83.7475 26.7155C82.9822 26.7155 82.3773 26.9712 81.9327 27.4826C81.4882 27.9939 81.2659 28.699 81.2659 29.5979C81.2659 30.4645 81.491 31.1481 81.9411 31.6487C82.3913 32.1439 82.9934 32.3914 83.7475 32.3914C84.5184 32.3914 85.1093 32.1466 85.5201 31.6567C85.9365 31.1669 86.1447 30.4699 86.1447 29.5656C86.1447 28.6559 85.9365 27.9536 85.5201 27.4584C85.1093 26.9632 84.5184 26.7155 83.7475 26.7155Z" fill="#004023"/>
        <path d="M93.9859 33.8768C92.6522 33.8768 91.5859 33.492 90.7868 32.7222C89.9934 31.9472 89.5967 30.9218 89.5967 29.6461C89.5967 28.2574 90.0103 27.1728 90.8375 26.3924C91.6703 25.6118 92.7901 25.2217 94.1969 25.2217C95.5474 25.2217 96.5997 25.6011 97.3538 26.36C98.1078 27.119 98.4848 28.1713 98.4848 29.5169C98.4848 30.8357 98.0769 31.8933 97.2609 32.6899C96.4506 33.4811 95.3589 33.8768 93.9859 33.8768ZM94.0787 26.7153C93.3134 26.7153 92.7085 26.971 92.264 27.4823C91.8194 27.9937 91.5971 28.6987 91.5971 29.5977C91.5971 30.4643 91.8222 31.1478 92.2724 31.6485C92.7226 32.1436 93.3247 32.3912 94.0787 32.3912C94.8497 32.3912 95.4405 32.1463 95.8513 31.6565C96.2677 31.1667 96.4759 30.4696 96.4759 29.5653C96.4759 28.6557 96.2677 27.9533 95.8513 27.4581C95.4405 26.9629 94.8497 26.7153 94.0787 26.7153Z" fill="#004023"/>
        <path d="M108.352 33.0212C108.352 36.0569 106.757 37.5748 103.567 37.5748C102.441 37.5748 101.459 37.3945 100.621 37.0339V35.3222C101.566 35.8389 102.464 36.0974 103.313 36.0974C105.367 36.0974 106.394 35.1312 106.394 33.1988V32.2945H106.36C105.713 33.3496 104.74 33.877 103.44 33.877C102.388 33.877 101.538 33.511 100.891 32.779C100.249 32.0415 99.9285 31.0539 99.9285 29.8159C99.9285 28.4111 100.275 27.2941 100.967 26.4653C101.659 25.6364 102.61 25.2219 103.82 25.2219C104.962 25.2219 105.809 25.6686 106.36 26.5621H106.394V25.4157H108.352V33.0212ZM106.411 29.8966V28.8228C106.411 28.2415 106.208 27.7463 105.803 27.3373C105.404 26.9228 104.903 26.7155 104.301 26.7155C103.558 26.7155 102.976 26.9793 102.554 27.5068C102.137 28.0289 101.929 28.761 101.929 29.7028C101.929 30.5156 102.129 31.1669 102.528 31.6567C102.933 32.1412 103.468 32.3834 104.132 32.3834C104.807 32.3834 105.356 32.1519 105.778 31.6891C106.2 31.2207 106.411 30.6233 106.411 29.8966Z" fill="#004023"/>
        <path d="M112.868 33.6832H110.902V21.4434H112.868V33.6832Z" fill="#004023"/>
        <path d="M122.744 30.0581H116.852C116.875 30.8225 117.12 31.4119 117.587 31.8263C118.059 32.2408 118.707 32.448 119.528 32.448C120.451 32.448 121.298 32.1843 122.069 31.6567V33.1665C121.281 33.6402 120.24 33.877 118.946 33.877C117.674 33.877 116.675 33.5029 115.949 32.7548C115.229 32.0012 114.869 30.9436 114.869 29.5818C114.869 28.2953 115.265 27.2484 116.059 26.441C116.858 25.6283 117.848 25.2219 119.03 25.2219C120.212 25.2219 121.126 25.5852 121.773 26.3119C122.42 27.0385 122.744 28.0478 122.744 29.3396V30.0581ZM120.853 28.734C120.848 28.0612 120.682 27.5391 120.355 27.1677C120.029 26.7909 119.579 26.6026 119.005 26.6026C118.442 26.6026 117.964 26.7989 117.57 27.1919C117.182 27.5848 116.942 28.0989 116.852 28.734H120.853Z" fill="#004023"/>
        <path d="M131.59 29.4847V33.6831H129.59V22.1052H133.261C134.651 22.1052 135.729 22.4148 136.494 23.0337C137.259 23.6527 137.642 24.5247 137.642 25.6496C137.642 26.7746 137.243 27.695 136.444 28.4109C135.644 29.1268 134.564 29.4847 133.202 29.4847H131.59ZM131.59 23.6877V27.9184H132.89C133.751 27.9184 134.406 27.7273 134.857 27.3451C135.307 26.963 135.532 26.4248 135.532 25.7303C135.532 24.3686 134.705 23.6877 133.05 23.6877H131.59Z" fill="#004023"/>
        <path d="M141.449 33.6832H139.482V21.4434H141.449V33.6832Z" fill="#004023"/>
        <path d="M150.641 33.6832H148.742V32.3914H148.708C148.112 33.3818 147.237 33.877 146.083 33.877C145.233 33.877 144.566 33.6563 144.082 33.215C143.604 32.7736 143.365 32.1896 143.365 31.4629C143.365 29.902 144.305 28.9923 146.184 28.734L148.75 28.3869C148.75 27.208 148.165 26.6186 146.995 26.6186C145.965 26.6186 145.036 26.9577 144.209 27.636V25.997C145.121 25.4803 146.173 25.2219 147.366 25.2219C149.549 25.2219 150.641 26.25 150.641 28.3061V33.6832ZM148.75 29.6221L146.935 29.8643C146.373 29.9343 145.948 30.0662 145.661 30.2599C145.38 30.4484 145.239 30.7821 145.239 31.2611C145.239 31.611 145.368 31.8989 145.627 32.125C145.892 32.3457 146.243 32.456 146.682 32.456C147.279 32.456 147.771 32.2569 148.159 31.8586C148.553 31.4549 148.75 30.9489 148.75 30.3407V29.6221Z" fill="#004023"/>
        <path d="M160.525 25.4155L156.626 35.0071C155.815 36.7188 154.678 37.5746 153.215 37.5746C152.805 37.5746 152.461 37.5396 152.186 37.4697V35.9114C152.495 36.0083 152.776 36.0567 153.03 36.0567C153.761 36.0567 154.307 35.7123 154.667 35.0233L155.25 33.667L151.814 25.4155H153.984L156.043 31.4224C156.066 31.4978 156.116 31.6969 156.195 32.0198H156.237C156.265 31.8961 156.316 31.7023 156.389 31.4386L158.55 25.4155H160.525Z" fill="#004023"/>
    </g>
    <defs>
        <clipPath id="clip0_866_28924">
            <rect width="187" height="44" fill="white"/>
        </clipPath>
    </defs>
</svg>
